NotoSansMiao-Regular.ufo
<glyph name="u16F00" format="2">
  <advance width="522"/>
  <unicode hex="16F00"/>
  <outline>
    <contour>
      <point x="30" y="0" type="line"/>
      <point x="432" y="0" type="line"/>
      <point x="432" y="714" type="line"/>
      <point x="342" y="714" type="line"/>
      <point x="342" y="80" type="line"/>
      <point x="30" y="80" type="line"/>
    </contour>
  </outline>
</glyph>
<glyph name="u16F02" format="2">
  <advance width="537"/>
  <unicode hex="16F02"/>
  <outline>
    <contour>
      <point x="30" y="0" type="line"/>
      <point x="507" y="0" type="line"/>
      <point x="507" y="80" type="line"/>
      <point x="432" y="80" type="line"/>
      <point x="432" y="714" type="line"/>
      <point x="342" y="714" type="line"/>
      <point x="342" y="80" type="line"/>
      <point x="30" y="80" type="line"/>
    </contour>
  </outline>
</glyph>
<glyph name="u16F03" format="2">
  <advance width="596"/>
  <unicode hex="16F03"/>
  <outline>
    <contour>
      <point x="210" y="0" type="curve" smooth="yes"/>
      <point x="506" y="0" type="line"/>
      <point x="506" y="714" type="line"/>
      <point x="416" y="714" type="line"/>
      <point x="416" y="80" type="line"/>
      <point x="326" y="80" type="line"/>
      <point x="341" y="103"/>
      <point x="349" y="130"/>
      <point x="349" y="160" type="curve" smooth="yes"/>
      <point x="349" y="246"/>
      <point x="279" y="316"/>
      <point x="189" y="316" type="curve" smooth="yes"/>
      <point x="99" y="316"/>
      <point x="30" y="246"/>
      <point x="30" y="160" type="curve" smooth="yes"/>
      <point x="30" y="53"/>
      <point x="117" y="0"/>
    </contour>
    <contour>
      <point x="189" y="80" type="curve" smooth="yes"/>
      <point x="144" y="80"/>
      <point x="110" y="115"/>
      <point x="110" y="160" type="curve" smooth="yes"/>
      <point x="110" y="204"/>
      <point x="144" y="240"/>
      <point x="189" y="240" type="curve" smooth="yes"/>
      <point x="233" y="240"/>
      <point x="269" y="204"/>
      <point x="269" y="160" type="curve" smooth="yes"/>
      <point x="269" y="115"/>
      <point x="233" y="80"/>
    </contour>
  </outline>
</glyph>
<glyph name="u16F04" format="2">
  <advance width="580"/>
  <unicode hex="16F04"/>
  <outline>
    <contour>
      <point x="30" y="0" type="line"/>
      <point x="187" y="0" type="line" smooth="yes"/>
      <point x="398" y="0"/>
      <point x="520" y="139"/>
      <point x="520" y="358" type="curve" smooth="yes"/>
      <point x="520" y="580"/>
      <point x="401" y="714"/>
      <point x="187" y="714" type="curve" smooth="yes"/>
      <point x="30" y="714" type="line"/>
      <point x="30" y="634" type="line"/>
      <point x="192" y="634" type="line" smooth="yes"/>
      <point x="353" y="634"/>
      <point x="425" y="538"/>
      <point x="425" y="358" type="curve" smooth="yes"/>
      <point x="425" y="181"/>
      <point x="346" y="80"/>
      <point x="190" y="80" type="curve" smooth="yes"/>
      <point x="30" y="80" type="line"/>
    </contour>
  </outline>
</glyph>
<glyph name="u16F06" format="2">
  <advance width="837"/>
  <unicode hex="16F06"/>
  <outline>
    <contour>
      <point x="50" y="0" type="line"/>
      <point x="140" y="0" type="line"/>
      <point x="140" y="156" type="line" smooth="yes"/>
      <point x="140" y="317"/>
      <point x="243" y="405"/>
      <point x="423" y="405" type="curve" smooth="yes"/>
      <point x="600" y="405"/>
      <point x="697" y="310"/>
      <point x="697" y="154" type="curve" smooth="yes"/>
      <point x="697" y="0" type="line"/>
      <point x="787" y="0" type="line"/>
      <point x="787" y="157" type="line" smooth="yes"/>
      <point x="787" y="368"/>
      <point x="642" y="490"/>
      <point x="423" y="490" type="curve" smooth="yes"/>
      <point x="201" y="490"/>
      <point x="50" y="371"/>
      <point x="50" y="157" type="curve" smooth="yes"/>
    </contour>
  </outline>
</glyph>
<glyph name="u16F07" format="2">
  <advance width="522"/>
  <unicode hex="16F07"/>
  <outline>
    <contour>
      <point x="90" y="0" type="line"/>
      <point x="180" y="0" type="line"/>
      <point x="180" y="634" type="line"/>
      <point x="492" y="634" type="line"/>
      <point x="492" y="714" type="line"/>
      <point x="90" y="714" type="line"/>
    </contour>
  </outline>
</glyph>
<glyph name="u16F08" format="2">
  <advance width="620"/>
  <unicode hex="16F08"/>
  <outline>
    <contour>
      <point x="265" y="0" type="line"/>
      <point x="355" y="0" type="line"/>
      <point x="610" y="714" type="line"/>
      <point x="515" y="714" type="line"/>
      <point x="355" y="258" type="line" smooth="yes"/>
      <point x="334" y="198"/>
      <point x="319" y="147"/>
      <point x="310" y="100" type="curve"/>
      <point x="300" y="147"/>
      <point x="286" y="197"/>
      <point x="265" y="256" type="curve" smooth="yes"/>
      <point x="104" y="714" type="line"/>
      <point x="10" y="714" type="line"/>
    </contour>
  </outline>
</glyph>
<glyph name="u16F0A" format="2">
  <advance width="575"/>
  <unicode hex="16F0A"/>
  <outline>
    <contour>
      <point x="243" y="0" type="line"/>
      <point x="333" y="0" type="line"/>
      <point x="333" y="634" type="line"/>
      <point x="555" y="634" type="line"/>
      <point x="555" y="714" type="line"/>
      <point x="20" y="714" type="line"/>
      <point x="20" y="634" type="line"/>
      <point x="243" y="634" type="line"/>
    </contour>
  </outline>
</glyph>
<glyph name="u16F0C" format="2">
  <advance width="605"/>
  <unicode hex="16F0C"/>
  <outline>
    <contour>
      <point x="243" y="0" type="line"/>
      <point x="333" y="0" type="line"/>
      <point x="333" y="634" type="line"/>
      <point x="465" y="634" type="line"/>
      <point x="465" y="410" type="line"/>
      <point x="555" y="410" type="line"/>
      <point x="555" y="714" type="line"/>
      <point x="20" y="714" type="line"/>
      <point x="20" y="634" type="line"/>
      <point x="243" y="634" type="line"/>
    </contour>
  </outline>
</glyph>
<glyph name="u16F0D" format="2">
  <advance width="575"/>
  <unicode hex="16F0D"/>
  <outline>
    <contour>
      <point x="150" y="0" type="line"/>
      <point x="425" y="0" type="line"/>
      <point x="425" y="80" type="line"/>
      <point x="333" y="80" type="line"/>
      <point x="333" y="634" type="line"/>
      <point x="555" y="634" type="line"/>
      <point x="555" y="714" type="line"/>
      <point x="20" y="714" type="line"/>
      <point x="20" y="634" type="line"/>
      <point x="243" y="634" type="line"/>
      <point x="243" y="80" type="line"/>
      <point x="150" y="80" type="line"/>
    </contour>
  </outline>
</glyph>
<glyph name="u16F10" format="2">
  <advance width="580"/>
  <unicode hex="16F10"/>
  <outline>
    <contour>
      <point x="393" y="0" type="curve" smooth="yes"/>
      <point x="550" y="0" type="line"/>
      <point x="550" y="80" type="line"/>
      <point x="390" y="80" type="line" smooth="yes"/>
      <point x="234" y="80"/>
      <point x="155" y="181"/>
      <point x="155" y="358" type="curve" smooth="yes"/>
      <point x="155" y="538"/>
      <point x="227" y="634"/>
      <point x="388" y="634" type="curve" smooth="yes"/>
      <point x="550" y="634" type="line"/>
      <point x="550" y="714" type="line"/>
      <point x="393" y="714" type="line" smooth="yes"/>
      <point x="179" y="714"/>
      <point x="60" y="580"/>
      <point x="60" y="358" type="curve" smooth="yes"/>
      <point x="60" y="139"/>
      <point x="182" y="0"/>
    </contour>
  </outline>
</glyph>
<glyph name="u16F12" format="2">
  <advance width="590"/>
  <unicode hex="16F12"/>
  <outline>
    <contour>
      <point x="403" y="0" type="curve" smooth="yes"/>
      <point x="560" y="0" type="line"/>
      <point x="560" y="80" type="line"/>
      <point x="400" y="80" type="line" smooth="yes"/>
      <point x="244" y="80"/>
      <point x="165" y="181"/>
      <point x="165" y="358" type="curve" smooth="yes"/>
      <point x="165" y="538"/>
      <point x="237" y="634"/>
      <point x="398" y="634" type="curve" smooth="yes"/>
      <point x="560" y="634" type="line"/>
      <point x="560" y="714" type="line"/>
      <point x="30" y="714" type="line"/>
      <point x="30" y="634" type="line"/>
      <point x="172" y="634" type="line"/>
      <point x="105" y="572"/>
      <point x="70" y="479"/>
      <point x="70" y="358" type="curve" smooth="yes"/>
      <point x="70" y="139"/>
      <point x="192" y="0"/>
    </contour>
  </outline>
</glyph>
<glyph name="u16F13" format="2">
  <advance width="837"/>
  <unicode hex="16F13"/>
  <outline>
    <contour>
      <point x="423" y="-10" type="curve" smooth="yes"/>
      <point x="642" y="-10"/>
      <point x="787" y="112"/>
      <point x="787" y="323" type="curve" smooth="yes"/>
      <point x="787" y="480" type="line"/>
      <point x="697" y="480" type="line"/>
      <point x="697" y="320" type="line" smooth="yes"/>
      <point x="697" y="164"/>
      <point x="600" y="75"/>
      <point x="423" y="75" type="curve" smooth="yes"/>
      <point x="243" y="75"/>
      <point x="140" y="157"/>
      <point x="140" y="318" type="curve" smooth="yes"/>
      <point x="140" y="480" type="line"/>
      <point x="50" y="480" type="line"/>
      <point x="50" y="323" type="line" smooth="yes"/>
      <point x="50" y="109"/>
      <point x="201" y="-10"/>
    </contour>
  </outline>
</glyph>
<glyph name="u16F14" format="2">
  <advance width="616"/>
  <unicode hex="16F14"/>
  <outline>
    <contour>
      <point x="393" y="0" type="curve" smooth="yes"/>
      <point x="550" y="0" type="line"/>
      <point x="550" y="80" type="line"/>
      <point x="390" y="80" type="line" smooth="yes"/>
      <point x="234" y="80"/>
      <point x="155" y="181"/>
      <point x="155" y="358" type="curve" smooth="yes"/>
      <point x="155" y="491"/>
      <point x="194" y="583"/>
      <point x="279" y="620" type="curve"/>
      <point x="271" y="601"/>
      <point x="267" y="580"/>
      <point x="267" y="559" type="curve" smooth="yes"/>
      <point x="267" y="473"/>
      <point x="337" y="403"/>
      <point x="427" y="403" type="curve" smooth="yes"/>
      <point x="517" y="403"/>
      <point x="586" y="473"/>
      <point x="586" y="559" type="curve" smooth="yes"/>
      <point x="586" y="645"/>
      <point x="522" y="719"/>
      <point x="400" y="719" type="curve" smooth="yes"/>
      <point x="190" y="719"/>
      <point x="60" y="580"/>
      <point x="60" y="358" type="curve" smooth="yes"/>
      <point x="60" y="139"/>
      <point x="182" y="0"/>
    </contour>
    <contour>
      <point x="427" y="479" type="curve" smooth="yes"/>
      <point x="383" y="479"/>
      <point x="347" y="515"/>
      <point x="347" y="559" type="curve" smooth="yes"/>
      <point x="347" y="604"/>
      <point x="383" y="639"/>
      <point x="427" y="639" type="curve" smooth="yes"/>
      <point x="472" y="639"/>
      <point x="506" y="604"/>
      <point x="506" y="559" type="curve" smooth="yes"/>
      <point x="506" y="515"/>
      <point x="472" y="479"/>
    </contour>
  </outline>
</glyph>
<glyph name="u16F16" format="2">
  <advance width="522"/>
  <unicode hex="16F16"/>
  <outline>
    <contour>
      <point x="90" y="0" type="line"/>
      <point x="492" y="0" type="line"/>
      <point x="492" y="80" type="line"/>
      <point x="180" y="80" type="line"/>
      <point x="180" y="714" type="line"/>
      <point x="90" y="714" type="line"/>
    </contour>
  </outline>
</glyph>
<glyph name="u16F18" format="2">
  <advance width="596"/>
  <unicode hex="16F18"/>
  <outline>
    <contour>
      <point x="90" y="0" type="line"/>
      <point x="386" y="0" type="line" smooth="yes"/>
      <point x="479" y="0"/>
      <point x="566" y="53"/>
      <point x="566" y="160" type="curve" smooth="yes"/>
      <point x="566" y="246"/>
      <point x="497" y="316"/>
      <point x="407" y="316" type="curve" smooth="yes"/>
      <point x="317" y="316"/>
      <point x="247" y="246"/>
      <point x="247" y="160" type="curve" smooth="yes"/>
      <point x="247" y="130"/>
      <point x="255" y="103"/>
      <point x="270" y="80" type="curve"/>
      <point x="180" y="80" type="line"/>
      <point x="180" y="714" type="line"/>
      <point x="90" y="714" type="line"/>
    </contour>
    <contour>
      <point x="407" y="80" type="curve" smooth="yes"/>
      <point x="363" y="80"/>
      <point x="327" y="115"/>
      <point x="327" y="160" type="curve" smooth="yes"/>
      <point x="327" y="204"/>
      <point x="363" y="240"/>
      <point x="407" y="240" type="curve" smooth="yes"/>
      <point x="452" y="240"/>
      <point x="486" y="204"/>
      <point x="486" y="160" type="curve" smooth="yes"/>
      <point x="486" y="115"/>
      <point x="452" y="80"/>
    </contour>
  </outline>
</glyph>
<glyph name="u16F1A" format="2">
  <advance width="620"/>
  <unicode hex="16F1A"/>
  <outline>
    <contour>
      <point x="10" y="0" type="line"/>
      <point x="610" y="0" type="line"/>
      <point x="355" y="714" type="line"/>
      <point x="265" y="714" type="line"/>
    </contour>
    <contour>
      <point x="132" y="80" type="line"/>
      <point x="265" y="458" type="line" smooth="yes"/>
      <point x="286" y="517"/>
      <point x="300" y="567"/>
      <point x="310" y="614" type="curve"/>
      <point x="319" y="567"/>
      <point x="334" y="516"/>
      <point x="355" y="456" type="curve" smooth="yes"/>
      <point x="487" y="80" type="line"/>
    </contour>
  </outline>
</glyph>
<glyph name="u16F1E" format="2">
  <advance width="522"/>
  <unicode hex="16F1E"/>
  <outline>
    <contour>
      <point x="30" y="0" type="line"/>
      <point x="432" y="0" type="line"/>
      <point x="432" y="714" type="line"/>
      <point x="30" y="714" type="line"/>
      <point x="30" y="634" type="line"/>
      <point x="342" y="634" type="line"/>
      <point x="342" y="80" type="line"/>
      <point x="30" y="80" type="line"/>
    </contour>
  </outline>
</glyph>
<glyph name="u16F20" format="2">
  <advance width="562"/>
  <unicode hex="16F20"/>
  <outline>
    <contour>
      <point x="30" y="0" type="line"/>
      <point x="432" y="0" type="line"/>
      <point x="432" y="634" type="line"/>
      <point x="532" y="634" type="line"/>
      <point x="532" y="714" type="line"/>
      <point x="30" y="714" type="line"/>
      <point x="30" y="634" type="line"/>
      <point x="342" y="634" type="line"/>
      <point x="342" y="80" type="line"/>
      <point x="30" y="80" type="line"/>
    </contour>
  </outline>
</glyph>
<glyph name="u16F21" format="2">
  <advance width="575"/>
  <unicode hex="16F21"/>
  <outline>
    <contour>
      <point x="40" y="0" type="line"/>
      <point x="333" y="0" type="line"/>
      <point x="333" y="634" type="line"/>
      <point x="555" y="634" type="line"/>
      <point x="555" y="714" type="line"/>
      <point x="20" y="714" type="line"/>
      <point x="20" y="634" type="line"/>
      <point x="243" y="634" type="line"/>
      <point x="243" y="80" type="line"/>
      <point x="40" y="80" type="line"/>
    </contour>
  </outline>
</glyph>
<glyph name="u16F23" format="2">
  <advance width="616"/>
  <unicode hex="16F23"/>
  <outline>
    <contour>
      <point x="400" y="-5" type="curve" smooth="yes"/>
      <point x="522" y="-5"/>
      <point x="586" y="69"/>
      <point x="586" y="155" type="curve" smooth="yes"/>
      <point x="586" y="241"/>
      <point x="517" y="311"/>
      <point x="427" y="311" type="curve" smooth="yes"/>
      <point x="337" y="311"/>
      <point x="267" y="241"/>
      <point x="267" y="155" type="curve" smooth="yes"/>
      <point x="267" y="134"/>
      <point x="271" y="113"/>
      <point x="279" y="94" type="curve"/>
      <point x="194" y="131"/>
      <point x="155" y="223"/>
      <point x="155" y="356" type="curve" smooth="yes"/>
      <point x="155" y="533"/>
      <point x="234" y="634"/>
      <point x="390" y="634" type="curve" smooth="yes"/>
      <point x="550" y="634" type="line"/>
      <point x="550" y="714" type="line"/>
      <point x="393" y="714" type="line" smooth="yes"/>
      <point x="182" y="714"/>
      <point x="60" y="575"/>
      <point x="60" y="356" type="curve" smooth="yes"/>
      <point x="60" y="134"/>
      <point x="190" y="-5"/>
    </contour>
    <contour>
      <point x="427" y="75" type="curve" smooth="yes"/>
      <point x="383" y="75"/>
      <point x="347" y="110"/>
      <point x="347" y="155" type="curve" smooth="yes"/>
      <point x="347" y="199"/>
      <point x="383" y="235"/>
      <point x="427" y="235" type="curve" smooth="yes"/>
      <point x="472" y="235"/>
      <point x="506" y="199"/>
      <point x="506" y="155" type="curve" smooth="yes"/>
      <point x="506" y="110"/>
      <point x="472" y="75"/>
    </contour>
  </outline>
</glyph>
<glyph name="u16F25" format="2">
  <advance width="837"/>
  <unicode hex="16F25"/>
  <outline>
    <contour>
      <point x="423" y="-10" type="curve" smooth="yes"/>
      <point x="642" y="-10"/>
      <point x="787" y="96"/>
      <point x="787" y="360" type="curve" smooth="yes"/>
      <point x="787" y="487"/>
      <point x="707" y="551"/>
      <point x="617" y="551" type="curve" smooth="yes"/>
      <point x="527" y="551"/>
      <point x="458" y="477"/>
      <point x="458" y="391" type="curve" smooth="yes"/>
      <point x="458" y="305"/>
      <point x="527" y="235"/>
      <point x="617" y="235" type="curve" smooth="yes"/>
      <point x="642" y="235"/>
      <point x="667" y="241"/>
      <point x="689" y="251" type="curve"/>
      <point x="664" y="136"/>
      <point x="572" y="75"/>
      <point x="423" y="75" type="curve" smooth="yes"/>
      <point x="243" y="75"/>
      <point x="140" y="157"/>
      <point x="140" y="318" type="curve" smooth="yes"/>
      <point x="140" y="480" type="line"/>
      <point x="50" y="480" type="line"/>
      <point x="50" y="323" type="line" smooth="yes"/>
      <point x="50" y="109"/>
      <point x="201" y="-10"/>
    </contour>
    <contour>
      <point x="617" y="311" type="curve" smooth="yes"/>
      <point x="572" y="311"/>
      <point x="538" y="347"/>
      <point x="538" y="391" type="curve" smooth="yes"/>
      <point x="538" y="436"/>
      <point x="572" y="471"/>
      <point x="617" y="471" type="curve" smooth="yes"/>
      <point x="661" y="471"/>
      <point x="697" y="436"/>
      <point x="697" y="391" type="curve" smooth="yes"/>
      <point x="697" y="347"/>
      <point x="661" y="311"/>
    </contour>
  </outline>
</glyph>
<glyph name="u16F26" format="2">
  <advance width="522"/>
  <unicode hex="16F26"/>
  <outline>
    <contour>
      <point x="342" y="0" type="line"/>
      <point x="432" y="0" type="line"/>
      <point x="432" y="714" type="line"/>
      <point x="30" y="714" type="line"/>
      <point x="30" y="634" type="line"/>
      <point x="342" y="634" type="line"/>
    </contour>
  </outline>
</glyph>
<glyph name="u16F27" format="2">
  <advance width="596"/>
  <unicode hex="16F27"/>
  <outline>
    <contour>
      <point x="416" y="0" type="line"/>
      <point x="506" y="0" type="line"/>
      <point x="506" y="714" type="line"/>
      <point x="210" y="714" type="line" smooth="yes"/>
      <point x="117" y="714"/>
      <point x="30" y="661"/>
      <point x="30" y="554" type="curve" smooth="yes"/>
      <point x="30" y="468"/>
      <point x="99" y="398"/>
      <point x="189" y="398" type="curve" smooth="yes"/>
      <point x="279" y="398"/>
      <point x="349" y="468"/>
      <point x="349" y="554" type="curve" smooth="yes"/>
      <point x="349" y="584"/>
      <point x="341" y="611"/>
      <point x="326" y="634" type="curve"/>
      <point x="416" y="634" type="line"/>
    </contour>
    <contour>
      <point x="189" y="474" type="curve" smooth="yes"/>
      <point x="144" y="474"/>
      <point x="110" y="510"/>
      <point x="110" y="554" type="curve" smooth="yes"/>
      <point x="110" y="599"/>
      <point x="144" y="634"/>
      <point x="189" y="634" type="curve" smooth="yes"/>
      <point x="233" y="634"/>
      <point x="269" y="599"/>
      <point x="269" y="554" type="curve" smooth="yes"/>
      <point x="269" y="510"/>
      <point x="233" y="474"/>
    </contour>
  </outline>
</glyph>
<glyph name="u16F28" format="2">
  <advance width="290"/>
  <unicode hex="16F28"/>
  <outline>
    <contour>
      <point x="100" y="0" type="line"/>
      <point x="190" y="0" type="line"/>
      <point x="190" y="714" type="line"/>
      <point x="100" y="714" type="line"/>
    </contour>
  </outline>
</glyph>
<glyph name="u16F2A" format="2">
  <advance width="575"/>
  <unicode hex="16F2A"/>
  <outline>
    <contour>
      <point x="20" y="0" type="line"/>
      <point x="555" y="0" type="line"/>
      <point x="555" y="80" type="line"/>
      <point x="333" y="80" type="line"/>
      <point x="333" y="714" type="line"/>
      <point x="40" y="714" type="line"/>
      <point x="40" y="634" type="line"/>
      <point x="243" y="634" type="line"/>
      <point x="243" y="80" type="line"/>
      <point x="20" y="80" type="line"/>
    </contour>
  </outline>
</glyph>
<glyph name="u16F2C" format="2">
  <advance width="609"/>
  <unicode hex="16F2C"/>
  <outline>
    <contour>
      <point x="309" y="-10" type="curve" smooth="yes"/>
      <point x="428" y="-10"/>
      <point x="523" y="30"/>
      <point x="579" y="127" type="curve"/>
      <point x="508" y="172" type="line"/>
      <point x="473" y="110"/>
      <point x="398" y="75"/>
      <point x="311" y="75" type="curve" smooth="yes"/>
      <point x="227" y="75"/>
      <point x="150" y="112"/>
      <point x="150" y="187" type="curve" smooth="yes"/>
      <point x="150" y="303"/>
      <point x="247" y="326"/>
      <point x="357" y="326" type="curve" smooth="yes"/>
      <point x="426" y="326" type="line"/>
      <point x="426" y="405" type="line"/>
      <point x="356" y="405" type="line" smooth="yes"/>
      <point x="239" y="405"/>
      <point x="177" y="455"/>
      <point x="177" y="536" type="curve" smooth="yes"/>
      <point x="177" y="605"/>
      <point x="240" y="640"/>
      <point x="320" y="640" type="curve" smooth="yes"/>
      <point x="392" y="640"/>
      <point x="458" y="622"/>
      <point x="506" y="557" type="curve"/>
      <point x="574" y="609" type="line"/>
      <point x="515" y="696"/>
      <point x="429" y="725"/>
      <point x="322" y="725" type="curve" smooth="yes"/>
      <point x="173" y="725"/>
      <point x="82" y="639"/>
      <point x="82" y="537" type="curve" smooth="yes"/>
      <point x="82" y="441"/>
      <point x="135" y="389"/>
      <point x="225" y="371" type="curve"/>
      <point x="225" y="367" type="line"/>
      <point x="111" y="353"/>
      <point x="60" y="281"/>
      <point x="60" y="183" type="curve" smooth="yes"/>
      <point x="60" y="83"/>
      <point x="139" y="-10"/>
    </contour>
  </outline>
</glyph>
<glyph name="u16F2E" format="2">
  <advance width="522"/>
  <unicode hex="16F2E"/>
  <outline>
    <contour>
      <point x="90" y="0" type="line"/>
      <point x="492" y="0" type="line"/>
      <point x="492" y="80" type="line"/>
      <point x="180" y="80" type="line"/>
      <point x="180" y="634" type="line"/>
      <point x="492" y="634" type="line"/>
      <point x="492" y="714" type="line"/>
      <point x="90" y="714" type="line"/>
    </contour>
  </outline>
</glyph>
<glyph name="u16F30" format="2">
  <advance width="562"/>
  <unicode hex="16F30"/>
  <outline>
    <contour>
      <point x="130" y="0" type="line"/>
      <point x="532" y="0" type="line"/>
      <point x="532" y="80" type="line"/>
      <point x="220" y="80" type="line"/>
      <point x="220" y="634" type="line"/>
      <point x="532" y="634" type="line"/>
      <point x="532" y="714" type="line"/>
      <point x="30" y="714" type="line"/>
      <point x="30" y="634" type="line"/>
      <point x="130" y="634" type="line"/>
    </contour>
  </outline>
</glyph>
<glyph name="u16F32" format="2">
  <advance width="575"/>
  <unicode hex="16F32"/>
  <outline>
    <contour>
      <point x="20" y="0" type="line"/>
      <point x="555" y="0" type="line"/>
      <point x="555" y="80" type="line"/>
      <point x="332" y="80" type="line"/>
      <point x="332" y="634" type="line"/>
      <point x="535" y="634" type="line"/>
      <point x="535" y="714" type="line"/>
      <point x="242" y="714" type="line"/>
      <point x="242" y="80" type="line"/>
      <point x="20" y="80" type="line"/>
    </contour>
  </outline>
</glyph>
<glyph name="u16F33" format="2">
  <advance width="483"/>
  <unicode hex="16F33"/>
  <outline>
    <contour>
      <point x="210" y="-10" type="curve" smooth="yes"/>
      <point x="319" y="-10"/>
      <point x="393" y="53"/>
      <point x="393" y="191" type="curve" smooth="yes"/>
      <point x="393" y="714" type="line"/>
      <point x="303" y="714" type="line"/>
      <point x="303" y="184" type="line" smooth="yes"/>
      <point x="303" y="93"/>
      <point x="260" y="75"/>
      <point x="210" y="75" type="curve" smooth="yes"/>
      <point x="158" y="75"/>
      <point x="128" y="106"/>
      <point x="111" y="156" type="curve"/>
      <point x="30" y="118" type="line"/>
      <point x="55" y="43"/>
      <point x="109" y="-10"/>
    </contour>
  </outline>
</glyph>
<glyph name="u16F34" format="2">
  <advance width="496"/>
  <unicode hex="16F34"/>
  <outline>
    <contour>
      <point x="165" y="0" type="curve"/>
      <point x="255" y="0" type="line"/>
      <point x="350" y="156"/>
      <point x="442" y="352"/>
      <point x="442" y="714" type="curve"/>
      <point x="30" y="714" type="line"/>
      <point x="30" y="634" type="line"/>
      <point x="358" y="634" type="line"/>
      <point x="358" y="351"/>
      <point x="260" y="162"/>
    </contour>
  </outline>
</glyph>
<glyph name="u16F35" format="2">
  <advance width="622"/>
  <unicode hex="16F35"/>
  <outline>
    <contour>
      <point x="97" y="0" type="line"/>
      <point x="187" y="0" type="line"/>
      <point x="187" y="295" type="line"/>
      <point x="329" y="295" type="line"/>
      <point x="502" y="0" type="line"/>
      <point x="607" y="0" type="line"/>
      <point x="411" y="320" type="line"/>
      <point x="483" y="345"/>
      <point x="554" y="397"/>
      <point x="554" y="511" type="curve" smooth="yes"/>
      <point x="554" y="647"/>
      <point x="471" y="714"/>
      <point x="294" y="714" type="curve" smooth="yes"/>
      <point x="97" y="714" type="line"/>
    </contour>
    <contour>
      <point x="187" y="375" type="line"/>
      <point x="187" y="634" type="line"/>
      <point x="289" y="634" type="line" smooth="yes"/>
      <point x="406" y="634"/>
      <point x="459" y="600"/>
      <point x="459" y="507" type="curve" smooth="yes"/>
      <point x="459" y="417"/>
      <point x="410" y="375"/>
      <point x="294" y="375" type="curve" smooth="yes"/>
    </contour>
  </outline>
</glyph>
<glyph name="u16F37" format="2">
  <advance width="450"/>
  <unicode hex="16F37"/>
  <outline>
    <contour>
      <point x="180" y="0" type="line"/>
      <point x="270" y="0" type="line"/>
      <point x="270" y="411" type="line"/>
      <point x="420" y="411" type="line"/>
      <point x="420" y="491" type="line"/>
      <point x="270" y="491" type="line"/>
      <point x="270" y="714" type="line"/>
      <point x="180" y="714" type="line"/>
      <point x="180" y="491" type="line"/>
      <point x="30" y="491" type="line"/>
      <point x="30" y="411" type="line"/>
      <point x="180" y="411" type="line"/>
    </contour>
  </outline>
</glyph>
<glyph name="u16F3A" format="2">
  <advance width="593"/>
  <unicode hex="16F3A"/>
  <outline>
    <contour>
      <point x="298" y="-10" type="curve" smooth="yes"/>
      <point x="300" y="-10" type="line" smooth="yes"/>
      <point x="431" y="-10"/>
      <point x="533" y="62"/>
      <point x="533" y="183" type="curve" smooth="yes"/>
      <point x="533" y="295"/>
      <point x="460" y="350"/>
      <point x="334" y="397" type="curve" smooth="yes"/>
      <point x="218" y="440"/>
      <point x="168" y="464"/>
      <point x="168" y="536" type="curve" smooth="yes"/>
      <point x="168" y="598"/>
      <point x="219" y="641"/>
      <point x="301" y="641" type="curve" smooth="yes"/>
      <point x="364" y="641"/>
      <point x="414" y="619"/>
      <point x="458" y="570" type="curve"/>
      <point x="528" y="630" type="line"/>
      <point x="465" y="704"/>
      <point x="389" y="725"/>
      <point x="303" y="725" type="curve" smooth="yes"/>
      <point x="168" y="725"/>
      <point x="73" y="649"/>
      <point x="73" y="536" type="curve" smooth="yes"/>
      <point x="73" y="425"/>
      <point x="149" y="374"/>
      <point x="271" y="330" type="curve" smooth="yes"/>
      <point x="400" y="283"/>
      <point x="438" y="253"/>
      <point x="438" y="183" type="curve" smooth="yes"/>
      <point x="438" y="117"/>
      <point x="386" y="75"/>
      <point x="300" y="75" type="curve" smooth="yes"/>
      <point x="223" y="75"/>
      <point x="168" y="106"/>
      <point x="116" y="180" type="curve"/>
      <point x="45" y="122" type="line"/>
      <point x="116" y="19"/>
      <point x="202" y="-10"/>
    </contour>
  </outline>
</glyph>
<glyph name="u16F3B" format="2">
  <advance width="603"/>
  <unicode hex="16F3B"/>
  <outline>
    <contour>
      <point x="293" y="-10" type="curve" smooth="yes"/>
      <point x="463" y="-10"/>
      <point x="543" y="93"/>
      <point x="543" y="201" type="curve" smooth="yes"/>
      <point x="543" y="333"/>
      <point x="445" y="391"/>
      <point x="311" y="428" type="curve"/>
      <point x="528" y="646" type="line"/>
      <point x="528" y="714" type="line"/>
      <point x="73" y="714" type="line"/>
      <point x="73" y="634" type="line"/>
      <point x="407" y="634" type="line"/>
      <point x="165" y="390" type="line"/>
      <point x="165" y="382" type="line"/>
      <point x="341" y="353"/>
      <point x="453" y="290"/>
      <point x="453" y="205" type="curve" smooth="yes"/>
      <point x="453" y="122"/>
      <point x="375" y="75"/>
      <point x="295" y="75" type="curve" smooth="yes"/>
      <point x="218" y="75"/>
      <point x="163" y="106"/>
      <point x="111" y="180" type="curve"/>
      <point x="40" y="122" type="line"/>
      <point x="111" y="19"/>
      <point x="197" y="-10"/>
    </contour>
  </outline>
</glyph>
<glyph name="u16F3D" format="2">
  <advance width="620"/>
  <unicode hex="16F3D"/>
  <outline>
    <contour>
      <point x="10" y="0" type="line"/>
      <point x="104" y="0" type="line"/>
      <point x="265" y="458" type="line" smooth="yes"/>
      <point x="286" y="517"/>
      <point x="300" y="567"/>
      <point x="310" y="614" type="curve"/>
      <point x="319" y="567"/>
      <point x="334" y="516"/>
      <point x="355" y="456" type="curve" smooth="yes"/>
      <point x="515" y="0" type="line"/>
      <point x="610" y="0" type="line"/>
      <point x="355" y="714" type="line"/>
      <point x="265" y="714" type="line"/>
    </contour>
  </outline>
</glyph>
<glyph name="u16F3F" format="2">
  <advance width="774"/>
  <unicode hex="16F3F"/>
  <outline>
    <contour>
      <point x="30" y="37" type="line"/>
      <point x="744" y="292" type="line"/>
      <point x="744" y="382" type="line"/>
      <point x="30" y="637" type="line"/>
      <point x="30" y="543" type="line"/>
      <point x="488" y="382" type="line" smooth="yes"/>
      <point x="547" y="361"/>
      <point x="597" y="347"/>
      <point x="644" y="337" type="curve"/>
      <point x="597" y="328"/>
      <point x="546" y="313"/>
      <point x="486" y="292" type="curve" smooth="yes"/>
      <point x="30" y="132" type="line"/>
    </contour>
  </outline>
</glyph>
<glyph name="u16F40" format="2">
  <advance width="658"/>
  <unicode hex="16F40"/>
  <outline>
    <contour>
      <point x="10" y="0" type="line"/>
      <point x="101" y="0" type="line"/>
      <point x="186" y="221" type="line"/>
      <point x="469" y="221" type="line"/>
      <point x="555" y="0" type="line"/>
      <point x="648" y="0" type="line"/>
      <point x="370" y="717" type="line"/>
      <point x="289" y="717" type="line"/>
    </contour>
    <contour>
      <point x="216" y="301" type="line"/>
      <point x="297" y="517" type="line" smooth="yes"/>
      <point x="306" y="540"/>
      <point x="318" y="583"/>
      <point x="328" y="624" type="curve"/>
      <point x="335" y="599"/>
      <point x="356" y="533"/>
      <point x="362" y="517" type="curve" smooth="yes"/>
      <point x="442" y="301" type="line"/>
    </contour>
  </outline>
</glyph>
<glyph name="u16F42" format="2">
  <advance width="730"/>
  <unicode hex="16F42"/>
  <outline>
    <contour>
      <point x="362" y="-10" type="curve" smooth="yes"/>
      <point x="551" y="-10"/>
      <point x="640" y="104"/>
      <point x="640" y="252" type="curve" smooth="yes"/>
      <point x="640" y="714" type="line"/>
      <point x="550" y="714" type="line"/>
      <point x="550" y="252" type="line" smooth="yes"/>
      <point x="550" y="144"/>
      <point x="496" y="75"/>
      <point x="367" y="75" type="curve" smooth="yes"/>
      <point x="242" y="75"/>
      <point x="180" y="135"/>
      <point x="180" y="251" type="curve" smooth="yes"/>
      <point x="180" y="714" type="line"/>
      <point x="90" y="714" type="line"/>
      <point x="90" y="254" type="line" smooth="yes"/>
      <point x="90" y="95"/>
      <point x="184" y="-10"/>
    </contour>
  </outline>
</glyph>
<glyph name="u16F43" format="2">
  <advance width="586"/>
  <unicode hex="16F43"/>
  <outline>
    <contour>
      <point x="248" y="0" type="line"/>
      <point x="338" y="0" type="line"/>
      <point x="338" y="277" type="line"/>
      <point x="576" y="714" type="line"/>
      <point x="479" y="714" type="line"/>
      <point x="293" y="363" type="line"/>
      <point x="108" y="714" type="line"/>
      <point x="10" y="714" type="line"/>
      <point x="248" y="273" type="line"/>
    </contour>
  </outline>
</glyph>
<glyph name="u16F45" format="2">
  <advance width="596"/>
  <unicode hex="16F45"/>
  <outline>
    <contour>
      <point x="210" y="0" type="curve" smooth="yes"/>
      <point x="506" y="0" type="line"/>
      <point x="506" y="714" type="line"/>
      <point x="416" y="714" type="line"/>
      <point x="416" y="80" type="line"/>
      <point x="326" y="80" type="line"/>
      <point x="341" y="103"/>
      <point x="349" y="130"/>
      <point x="349" y="160" type="curve" smooth="yes"/>
      <point x="349" y="246"/>
      <point x="279" y="316"/>
      <point x="189" y="316" type="curve" smooth="yes"/>
      <point x="99" y="316"/>
      <point x="30" y="246"/>
      <point x="30" y="160" type="curve" smooth="yes"/>
      <point x="30" y="53"/>
      <point x="117" y="0"/>
    </contour>
    <contour>
      <point x="189" y="80" type="curve" smooth="yes"/>
      <point x="144" y="80"/>
      <point x="110" y="115"/>
      <point x="110" y="160" type="curve" smooth="yes"/>
      <point x="110" y="204"/>
      <point x="144" y="240"/>
      <point x="189" y="240" type="curve" smooth="yes"/>
      <point x="233" y="240"/>
      <point x="269" y="204"/>
      <point x="269" y="160" type="curve" smooth="yes"/>
      <point x="269" y="115"/>
      <point x="233" y="80"/>
    </contour>
    <component base="ring.half" xOffset="237" yOffset="114"/>
  </outline>
</glyph>
<glyph name="u16F47" format="2">
  <advance width="575"/>
  <unicode hex="16F47"/>
  <outline>
    <contour>
      <point x="20" y="0" type="line"/>
      <point x="555" y="0" type="line"/>
      <point x="555" y="80" type="line"/>
      <point x="332" y="80" type="line"/>
      <point x="332" y="634" type="line"/>
      <point x="535" y="634" type="line"/>
      <point x="535" y="714" type="line"/>
      <point x="242" y="714" type="line"/>
      <point x="242" y="80" type="line"/>
      <point x="20" y="80" type="line"/>
    </contour>
    <component base="ring.half" xOffset="64"/>
  </outline>
</glyph>
<glyph name="u16F49" format="2">
  <advance width="575"/>
  <unicode hex="16F49"/>
  <outline>
    <contour>
      <point x="333" y="714" type="line"/>
      <point x="243" y="714" type="line"/>
      <point x="243" y="0" type="line"/>
      <point x="333" y="0" type="line"/>
    </contour>
    <contour>
      <point x="110" y="714" type="line"/>
      <point x="20" y="714" type="line"/>
      <point x="20" y="470" type="line"/>
      <point x="110" y="470" type="line"/>
    </contour>
    <contour>
      <point x="20" y="554" type="line"/>
      <point x="555" y="554" type="line"/>
      <point x="555" y="634" type="line"/>
      <point x="20" y="634" type="line"/>
    </contour>
  </outline>
</glyph>
<glyph name="u16F4F" format="2">
  <unicode hex="16F4F"/>
  <outline>
    <contour>
      <point x="-20" y="194" type="line"/>
      <point x="-110" y="194" type="line"/>
      <point x="-110" y="-50" type="line"/>
      <point x="-20" y="-50" type="line"/>
    </contour>
  </outline>
</glyph>
<glyph name="u16F50" format="2">
  <advance width="420"/>
  <unicode hex="16F50"/>
  <outline>
    <contour>
      <point x="373" y="0" type="curve" smooth="yes"/>
      <point x="390" y="0" type="line"/>
      <point x="390" y="80" type="line"/>
      <point x="370" y="80" type="line" smooth="yes"/>
      <point x="214" y="80"/>
      <point x="135" y="191"/>
      <point x="135" y="358" type="curve" smooth="yes"/>
      <point x="135" y="538"/>
      <point x="207" y="634"/>
      <point x="368" y="634" type="curve" smooth="yes"/>
      <point x="390" y="634" type="line"/>
      <point x="390" y="714" type="line"/>
      <point x="373" y="714" type="line" smooth="yes"/>
      <point x="159" y="714"/>
      <point x="40" y="570"/>
      <point x="40" y="358" type="curve" smooth="yes"/>
      <point x="40" y="139"/>
      <point x="162" y="0"/>
    </contour>
  </outline>
</glyph>
<glyph name="u16F51" format="2">
  <advance width="173"/>
  <unicode hex="16F51"/>
  <outline>
    <contour>
      <point x="20" y="514" type="line"/>
      <point x="81" y="514" type="line"/>
      <point x="123" y="655" type="line"/>
      <point x="123" y="770" type="line"/>
      <point x="20" y="770" type="line"/>
      <point x="20" y="655" type="line"/>
      <point x="66" y="655" type="line"/>
    </contour>
  </outline>
</glyph>
<glyph name="u16F52" format="2">
  <advance width="173"/>
  <unicode hex="16F52"/>
  <outline>
    <contour>
      <point x="20" y="514" type="line"/>
      <point x="123" y="514" type="line"/>
      <point x="123" y="629" type="line"/>
      <point x="77" y="629" type="line"/>
      <point x="123" y="770" type="line"/>
      <point x="62" y="770" type="line"/>
      <point x="20" y="629" type="line"/>
    </contour>
  </outline>
</glyph>
<glyph name="u16F53" format="2">
  <advance width="173"/>
  <unicode hex="16F53"/>
  <outline>
    <contour>
      <point x="20" y="0" type="line"/>
      <point x="81" y="0" type="line"/>
      <point x="123" y="141" type="line"/>
      <point x="123" y="256" type="line"/>
      <point x="20" y="256" type="line"/>
      <point x="20" y="141" type="line"/>
      <point x="66" y="141" type="line"/>
    </contour>
  </outline>
</glyph>
<glyph name="u16F54" format="2">
  <advance width="314"/>
  <unicode hex="16F54"/>
  <outline>
    <contour>
      <point x="0" y="0" type="line"/>
      <point x="264" y="0" type="line"/>
      <point x="264" y="60" type="line"/>
      <point x="0" y="60" type="line"/>
    </contour>
  </outline>
</glyph>
<glyph name="u16F55" format="2">
  <advance width="461"/>
  <unicode hex="16F55"/>
  <outline>
    <contour>
      <point x="283" y="-10" type="curve" smooth="yes"/>
      <point x="355" y="-10"/>
      <point x="411" y="22"/>
      <point x="411" y="131" type="curve" smooth="yes"/>
      <point x="411" y="258" type="line"/>
      <point x="347" y="258" type="line"/>
      <point x="347" y="127" type="line" smooth="yes"/>
      <point x="347" y="78"/>
      <point x="322" y="54"/>
      <point x="283" y="54" type="curve" smooth="yes"/>
      <point x="240" y="54"/>
      <point x="218" y="78"/>
      <point x="218" y="126" type="curve" smooth="yes"/>
      <point x="218" y="258" type="line"/>
      <point x="0" y="258" type="line"/>
      <point x="0" y="198" type="line"/>
      <point x="154" y="198" type="line"/>
      <point x="154" y="131" type="line" smooth="yes"/>
      <point x="154" y="17"/>
      <point x="215" y="-10"/>
    </contour>
  </outline>
</glyph>
<glyph name="u16F56" format="2">
  <advance width="307"/>
  <unicode hex="16F56"/>
  <outline>
    <contour>
      <point x="129" y="-10" type="curve" smooth="yes"/>
      <point x="201" y="-10"/>
      <point x="257" y="22"/>
      <point x="257" y="131" type="curve" smooth="yes"/>
      <point x="257" y="258" type="line"/>
      <point x="193" y="258" type="line"/>
      <point x="193" y="191" type="line"/>
      <point x="64" y="191" type="line"/>
      <point x="64" y="258" type="line"/>
      <point x="0" y="258" type="line"/>
      <point x="0" y="131" type="line" smooth="yes"/>
      <point x="0" y="17"/>
      <point x="61" y="-10"/>
    </contour>
    <contour>
      <point x="129" y="54" type="curve" smooth="yes"/>
      <point x="86" y="54"/>
      <point x="64" y="78"/>
      <point x="64" y="126" type="curve" smooth="yes"/>
      <point x="64" y="134" type="line"/>
      <point x="193" y="134" type="line"/>
      <point x="193" y="127" type="line" smooth="yes"/>
      <point x="193" y="78"/>
      <point x="168" y="54"/>
    </contour>
  </outline>
</glyph>
<glyph name="u16F57" format="2">
  <advance width="402"/>
  <unicode hex="16F57"/>
  <outline>
    <contour>
      <point x="213" y="-10" type="curve" smooth="yes"/>
      <point x="288" y="-10"/>
      <point x="352" y="50"/>
      <point x="352" y="125" type="curve"/>
      <point x="284" y="125" type="line"/>
      <point x="284" y="84"/>
      <point x="254" y="54"/>
      <point x="213" y="54" type="curve" smooth="yes"/>
      <point x="173" y="54"/>
      <point x="142" y="84"/>
      <point x="142" y="125" type="curve" smooth="yes"/>
      <point x="142" y="166"/>
      <point x="171" y="195"/>
      <point x="208" y="198" type="curve" smooth="yes"/>
      <point x="214" y="198" type="line"/>
      <point x="214" y="258" type="line"/>
      <point x="0" y="258" type="line"/>
      <point x="0" y="198" type="line"/>
      <point x="110" y="198" type="line"/>
      <point x="87" y="178"/>
      <point x="74" y="153"/>
      <point x="74" y="125" type="curve" smooth="yes"/>
      <point x="74" y="50"/>
      <point x="138" y="-10"/>
    </contour>
  </outline>
</glyph>
<glyph name="u16F58" format="2">
  <advance width="393"/>
  <unicode hex="16F58"/>
  <outline>
    <contour>
      <point x="206" y="-15" type="curve" smooth="yes"/>
      <point x="279" y="-15"/>
      <point x="343" y="25"/>
      <point x="343" y="76" type="curve" smooth="yes"/>
      <point x="343" y="128"/>
      <point x="281" y="164"/>
      <point x="208" y="164" type="curve" smooth="yes"/>
      <point x="186" y="164"/>
      <point x="165" y="161"/>
      <point x="146" y="155" type="curve"/>
      <point x="156" y="179"/>
      <point x="178" y="196"/>
      <point x="207" y="198" type="curve" smooth="yes"/>
      <point x="214" y="198" type="line"/>
      <point x="214" y="258" type="line"/>
      <point x="0" y="258" type="line"/>
      <point x="0" y="198" type="line"/>
      <point x="116" y="198" type="line"/>
      <point x="91" y="176"/>
      <point x="71" y="147"/>
      <point x="71" y="102" type="curve" smooth="yes"/>
      <point x="71" y="24"/>
      <point x="126" y="-15"/>
    </contour>
    <contour>
      <point x="208" y="37" type="curve" smooth="yes"/>
      <point x="171" y="37"/>
      <point x="140" y="52"/>
      <point x="140" y="74" type="curve" smooth="yes"/>
      <point x="140" y="97"/>
      <point x="171" y="112"/>
      <point x="208" y="112" type="curve" smooth="yes"/>
      <point x="247" y="112"/>
      <point x="277" y="98"/>
      <point x="277" y="74" type="curve" smooth="yes"/>
      <point x="277" y="52"/>
      <point x="247" y="37"/>
    </contour>
  </outline>
</glyph>
<glyph name="u16F5A" format="2">
  <advance width="448"/>
  <unicode hex="16F5A"/>
  <outline>
    <contour>
      <point x="139" y="-10" type="curve" smooth="yes"/>
      <point x="214" y="-10"/>
      <point x="278" y="50"/>
      <point x="278" y="125" type="curve" smooth="yes"/>
      <point x="278" y="152"/>
      <point x="269" y="177"/>
      <point x="255" y="198" type="curve"/>
      <point x="398" y="198" type="line"/>
      <point x="398" y="258" type="line"/>
      <point x="139" y="258" type="line" smooth="yes"/>
      <point x="64" y="258"/>
      <point x="0" y="201"/>
      <point x="0" y="125" type="curve" smooth="yes"/>
      <point x="0" y="50"/>
      <point x="64" y="-10"/>
    </contour>
    <contour>
      <point x="139" y="54" type="curve" smooth="yes"/>
      <point x="99" y="54"/>
      <point x="68" y="84"/>
      <point x="68" y="125" type="curve" smooth="yes"/>
      <point x="68" y="168"/>
      <point x="99" y="197"/>
      <point x="139" y="197" type="curve" smooth="yes"/>
      <point x="180" y="197"/>
      <point x="210" y="169"/>
      <point x="210" y="125" type="curve" smooth="yes"/>
      <point x="210" y="84"/>
      <point x="180" y="54"/>
    </contour>
  </outline>
</glyph>
<glyph name="u16F5B" format="2">
  <advance width="328"/>
  <unicode hex="16F5B"/>
  <outline>
    <contour>
      <point x="139" y="-10" type="curve" smooth="yes"/>
      <point x="214" y="-10"/>
      <point x="278" y="50"/>
      <point x="278" y="125" type="curve" smooth="yes"/>
      <point x="278" y="190"/>
      <point x="231" y="243"/>
      <point x="171" y="257" type="curve"/>
      <point x="171" y="341" type="line"/>
      <point x="107" y="341" type="line"/>
      <point x="107" y="257" type="line"/>
      <point x="46" y="243"/>
      <point x="0" y="190"/>
      <point x="0" y="125" type="curve" smooth="yes"/>
      <point x="0" y="50"/>
      <point x="64" y="-10"/>
    </contour>
    <contour>
      <point x="139" y="54" type="curve" smooth="yes"/>
      <point x="99" y="54"/>
      <point x="68" y="84"/>
      <point x="68" y="125" type="curve" smooth="yes"/>
      <point x="68" y="168"/>
      <point x="99" y="197"/>
      <point x="139" y="197" type="curve" smooth="yes"/>
      <point x="180" y="197"/>
      <point x="210" y="169"/>
      <point x="210" y="125" type="curve" smooth="yes"/>
      <point x="210" y="84"/>
      <point x="180" y="54"/>
    </contour>
  </outline>
</glyph>
<glyph name="u16F5C" format="2">
  <advance width="331"/>
  <unicode hex="16F5C"/>
  <outline>
    <contour>
      <point x="0" y="0" type="line"/>
      <point x="130" y="0" type="line" smooth="yes"/>
      <point x="244" y="0"/>
      <point x="281" y="47"/>
      <point x="281" y="115" type="curve" smooth="yes"/>
      <point x="281" y="187"/>
      <point x="243" y="229"/>
      <point x="130" y="229" type="curve" smooth="yes"/>
      <point x="64" y="229" type="line"/>
      <point x="64" y="341" type="line"/>
      <point x="0" y="341" type="line"/>
      <point x="0" y="169" type="line"/>
      <point x="140" y="169" type="line" smooth="yes"/>
      <point x="189" y="169"/>
      <point x="213" y="154"/>
      <point x="213" y="115" type="curve" smooth="yes"/>
      <point x="213" y="72"/>
      <point x="189" y="60"/>
      <point x="141" y="60" type="curve" smooth="yes"/>
      <point x="0" y="60" type="line"/>
    </contour>
  </outline>
</glyph>
<glyph name="u16F5D" format="2">
  <advance width="351"/>
  <unicode hex="16F5D"/>
  <outline>
    <contour>
      <point x="151" y="0" type="curve" smooth="yes"/>
      <point x="301" y="0" type="line"/>
      <point x="301" y="60" type="line"/>
      <point x="140" y="60" type="line" smooth="yes"/>
      <point x="92" y="60"/>
      <point x="68" y="72"/>
      <point x="68" y="115" type="curve" smooth="yes"/>
      <point x="68" y="154"/>
      <point x="92" y="169"/>
      <point x="141" y="169" type="curve" smooth="yes"/>
      <point x="301" y="169" type="line"/>
      <point x="301" y="229" type="line"/>
      <point x="151" y="229" type="line" smooth="yes"/>
      <point x="38" y="229"/>
      <point x="0" y="187"/>
      <point x="0" y="115" type="curve" smooth="yes"/>
      <point x="0" y="47"/>
      <point x="37" y="0"/>
    </contour>
  </outline>
</glyph>
<glyph name="u16F5E" format="2">
  <advance width="313"/>
  <unicode hex="16F5E"/>
  <outline>
    <contour>
      <point x="133" y="-10" type="curve" smooth="yes"/>
      <point x="179" y="-10"/>
      <point x="231" y="3"/>
      <point x="263" y="57" type="curve"/>
      <point x="212" y="89" type="line"/>
      <point x="196" y="60"/>
      <point x="163" y="52"/>
      <point x="132" y="52" type="curve" smooth="yes"/>
      <point x="102" y="52"/>
      <point x="64" y="65"/>
      <point x="64" y="94" type="curve" smooth="yes"/>
      <point x="64" y="131"/>
      <point x="101" y="140"/>
      <point x="145" y="140" type="curve" smooth="yes"/>
      <point x="175" y="140" type="line"/>
      <point x="175" y="200" type="line"/>
      <point x="143" y="200" type="line" smooth="yes"/>
      <point x="99" y="200"/>
      <point x="75" y="218"/>
      <point x="75" y="242" type="curve" smooth="yes"/>
      <point x="75" y="270"/>
      <point x="99" y="280"/>
      <point x="128" y="280" type="curve" smooth="yes"/>
      <point x="157" y="280"/>
      <point x="185" y="275"/>
      <point x="205" y="248" type="curve"/>
      <point x="253" y="283" type="line"/>
      <point x="221" y="332"/>
      <point x="174" y="342"/>
      <point x="128" y="342" type="curve" smooth="yes"/>
      <point x="56" y="342"/>
      <point x="9" y="298"/>
      <point x="9" y="241" type="curve" smooth="yes"/>
      <point x="9" y="212"/>
      <point x="24" y="184"/>
      <point x="55" y="172" type="curve"/>
      <point x="20" y="157"/>
      <point x="0" y="126"/>
      <point x="0" y="88" type="curve" smooth="yes"/>
      <point x="0" y="38"/>
      <point x="49" y="-10"/>
    </contour>
  </outline>
</glyph>
<glyph name="u16F5F" format="2">
  <advance width="449"/>
  <unicode hex="16F5F"/>
  <outline>
    <contour>
      <point x="133" y="-10" type="curve" smooth="yes"/>
      <point x="165" y="-10"/>
      <point x="201" y="-3"/>
      <point x="231" y="19" type="curve"/>
      <point x="248" y="1"/>
      <point x="274" y="-10"/>
      <point x="302" y="-10" type="curve" smooth="yes"/>
      <point x="355" y="-10"/>
      <point x="399" y="31"/>
      <point x="399" y="82" type="curve" smooth="yes"/>
      <point x="399" y="133"/>
      <point x="355" y="174"/>
      <point x="302" y="174" type="curve" smooth="yes"/>
      <point x="250" y="174"/>
      <point x="208" y="135"/>
      <point x="206" y="80" type="curve"/>
      <point x="188" y="58"/>
      <point x="159" y="52"/>
      <point x="132" y="52" type="curve" smooth="yes"/>
      <point x="102" y="52"/>
      <point x="64" y="65"/>
      <point x="64" y="94" type="curve" smooth="yes"/>
      <point x="64" y="131"/>
      <point x="101" y="140"/>
      <point x="145" y="140" type="curve" smooth="yes"/>
      <point x="175" y="140" type="line"/>
      <point x="175" y="200" type="line"/>
      <point x="143" y="200" type="line" smooth="yes"/>
      <point x="99" y="200"/>
      <point x="75" y="218"/>
      <point x="75" y="242" type="curve" smooth="yes"/>
      <point x="75" y="270"/>
      <point x="99" y="280"/>
      <point x="128" y="280" type="curve" smooth="yes"/>
      <point x="157" y="280"/>
      <point x="185" y="275"/>
      <point x="205" y="248" type="curve"/>
      <point x="253" y="283" type="line"/>
      <point x="221" y="332"/>
      <point x="174" y="342"/>
      <point x="128" y="342" type="curve" smooth="yes"/>
      <point x="56" y="342"/>
      <point x="9" y="298"/>
      <point x="9" y="241" type="curve" smooth="yes"/>
      <point x="9" y="212"/>
      <point x="24" y="184"/>
      <point x="55" y="172" type="curve"/>
      <point x="20" y="157"/>
      <point x="0" y="126"/>
      <point x="0" y="88" type="curve" smooth="yes"/>
      <point x="0" y="38"/>
      <point x="49" y="-10"/>
    </contour>
    <contour>
      <point x="302" y="38" type="curve" smooth="yes"/>
      <point x="277" y="38"/>
      <point x="256" y="58"/>
      <point x="256" y="82" type="curve" smooth="yes"/>
      <point x="256" y="107"/>
      <point x="277" y="126"/>
      <point x="302" y="126" type="curve" smooth="yes"/>
      <point x="328" y="126"/>
      <point x="349" y="107"/>
      <point x="349" y="82" type="curve" smooth="yes"/>
      <point x="349" y="58"/>
      <point x="328" y="38"/>
    </contour>
  </outline>
</glyph>
<glyph name="u16F60" format="2">
  <advance width="331"/>
  <unicode hex="16F60"/>
  <outline>
    <contour>
      <point x="217" y="0" type="line"/>
      <point x="281" y="0" type="line"/>
      <point x="281" y="172" type="line"/>
      <point x="141" y="172" type="line" smooth="yes"/>
      <point x="92" y="172"/>
      <point x="68" y="187"/>
      <point x="68" y="226" type="curve" smooth="yes"/>
      <point x="68" y="269"/>
      <point x="92" y="281"/>
      <point x="140" y="281" type="curve" smooth="yes"/>
      <point x="281" y="281" type="line"/>
      <point x="281" y="341" type="line"/>
      <point x="151" y="341" type="line" smooth="yes"/>
      <point x="37" y="341"/>
      <point x="0" y="294"/>
      <point x="0" y="226" type="curve" smooth="yes"/>
      <point x="0" y="154"/>
      <point x="38" y="112"/>
      <point x="151" y="112" type="curve" smooth="yes"/>
      <point x="217" y="112" type="line"/>
    </contour>
  </outline>
</glyph>
<glyph name="u16F62" format="2">
  <advance width="461"/>
  <unicode hex="16F62"/>
  <outline>
    <contour>
      <point x="0" y="0" type="line"/>
      <point x="64" y="0" type="line"/>
      <point x="64" y="131" type="line" smooth="yes"/>
      <point x="64" y="180"/>
      <point x="89" y="204"/>
      <point x="128" y="204" type="curve" smooth="yes"/>
      <point x="171" y="204"/>
      <point x="193" y="180"/>
      <point x="193" y="132" type="curve" smooth="yes"/>
      <point x="193" y="0" type="line"/>
      <point x="411" y="0" type="line"/>
      <point x="411" y="60" type="line"/>
      <point x="257" y="60" type="line"/>
      <point x="257" y="127" type="line" smooth="yes"/>
      <point x="257" y="241"/>
      <point x="196" y="268"/>
      <point x="128" y="268" type="curve" smooth="yes"/>
      <point x="56" y="268"/>
      <point x="0" y="236"/>
      <point x="0" y="127" type="curve" smooth="yes"/>
    </contour>
  </outline>
</glyph>
<glyph name="u16F63" format="2">
  <advance width="599"/>
  <unicode hex="16F63"/>
  <outline>
    <contour>
      <point x="410" y="-208" type="curve" smooth="yes"/>
      <point x="485" y="-208"/>
      <point x="549" y="-148"/>
      <point x="549" y="-73" type="curve"/>
      <point x="481" y="-73" type="line"/>
      <point x="481" y="-114"/>
      <point x="451" y="-144"/>
      <point x="410" y="-144" type="curve" smooth="yes"/>
      <point x="370" y="-144"/>
      <point x="339" y="-114"/>
      <point x="339" y="-73" type="curve" smooth="yes"/>
      <point x="339" y="-30"/>
      <point x="371" y="0"/>
      <point x="411" y="0" type="curve"/>
      <point x="411" y="60" type="line"/>
      <point x="257" y="60" type="line"/>
      <point x="257" y="127" type="line" smooth="yes"/>
      <point x="257" y="241"/>
      <point x="196" y="268"/>
      <point x="128" y="268" type="curve" smooth="yes"/>
      <point x="56" y="268"/>
      <point x="0" y="236"/>
      <point x="0" y="127" type="curve" smooth="yes"/>
      <point x="0" y="0" type="line"/>
      <point x="64" y="0" type="line"/>
      <point x="64" y="131" type="line" smooth="yes"/>
      <point x="64" y="180"/>
      <point x="89" y="204"/>
      <point x="128" y="204" type="curve" smooth="yes"/>
      <point x="171" y="204"/>
      <point x="193" y="180"/>
      <point x="193" y="132" type="curve" smooth="yes"/>
      <point x="193" y="0" type="line"/>
      <point x="309" y="0" type="line"/>
      <point x="285" y="-20"/>
      <point x="271" y="-45"/>
      <point x="271" y="-73" type="curve" smooth="yes"/>
      <point x="271" y="-148"/>
      <point x="335" y="-208"/>
    </contour>
  </outline>
</glyph>
<glyph name="u16F64" format="2">
  <advance width="590"/>
  <unicode hex="16F64"/>
  <outline>
    <contour>
      <point x="403" y="-213" type="curve" smooth="yes"/>
      <point x="476" y="-213"/>
      <point x="540" y="-173"/>
      <point x="540" y="-122" type="curve" smooth="yes"/>
      <point x="540" y="-70"/>
      <point x="478" y="-34"/>
      <point x="405" y="-34" type="curve" smooth="yes"/>
      <point x="383" y="-34"/>
      <point x="362" y="-37"/>
      <point x="343" y="-43" type="curve"/>
      <point x="353" y="-18"/>
      <point x="375" y="-2"/>
      <point x="404" y="0" type="curve" smooth="yes"/>
      <point x="411" y="0" type="line"/>
      <point x="411" y="60" type="line"/>
      <point x="257" y="60" type="line"/>
      <point x="257" y="127" type="line" smooth="yes"/>
      <point x="257" y="241"/>
      <point x="196" y="268"/>
      <point x="128" y="268" type="curve" smooth="yes"/>
      <point x="56" y="268"/>
      <point x="0" y="236"/>
      <point x="0" y="127" type="curve" smooth="yes"/>
      <point x="0" y="0" type="line"/>
      <point x="64" y="0" type="line"/>
      <point x="64" y="131" type="line" smooth="yes"/>
      <point x="64" y="180"/>
      <point x="89" y="204"/>
      <point x="128" y="204" type="curve" smooth="yes"/>
      <point x="171" y="204"/>
      <point x="193" y="180"/>
      <point x="193" y="132" type="curve" smooth="yes"/>
      <point x="193" y="0" type="line"/>
      <point x="314" y="0" type="line"/>
      <point x="281" y="-29"/>
      <point x="268" y="-63"/>
      <point x="268" y="-103" type="curve" smooth="yes"/>
      <point x="268" y="-174"/>
      <point x="330" y="-213"/>
    </contour>
    <contour>
      <point x="405" y="-161" type="curve" smooth="yes"/>
      <point x="368" y="-161"/>
      <point x="337" y="-146"/>
      <point x="337" y="-124" type="curve" smooth="yes"/>
      <point x="337" y="-101"/>
      <point x="368" y="-86"/>
      <point x="405" y="-86" type="curve" smooth="yes"/>
      <point x="444" y="-86"/>
      <point x="474" y="-100"/>
      <point x="474" y="-124" type="curve" smooth="yes"/>
      <point x="474" y="-146"/>
      <point x="444" y="-161"/>
    </contour>
  </outline>
</glyph>
<glyph name="u16F65" format="2">
  <advance width="521"/>
  <unicode hex="16F65"/>
  <outline>
    <contour>
      <point x="332" y="-10" type="curve" smooth="yes"/>
      <point x="407" y="-10"/>
      <point x="471" y="50"/>
      <point x="471" y="125" type="curve" smooth="yes"/>
      <point x="471" y="201"/>
      <point x="407" y="261"/>
      <point x="332" y="261" type="curve" smooth="yes"/>
      <point x="294" y="261"/>
      <point x="259" y="246"/>
      <point x="234" y="221" type="curve"/>
      <point x="211" y="255"/>
      <point x="173" y="268"/>
      <point x="129" y="268" type="curve" smooth="yes"/>
      <point x="61" y="268"/>
      <point x="0" y="241"/>
      <point x="0" y="127" type="curve" smooth="yes"/>
      <point x="0" y="0" type="line"/>
      <point x="64" y="0" type="line"/>
      <point x="64" y="132" type="line" smooth="yes"/>
      <point x="64" y="180"/>
      <point x="86" y="204"/>
      <point x="129" y="204" type="curve" smooth="yes"/>
      <point x="168" y="204"/>
      <point x="193" y="180"/>
      <point x="193" y="131" type="curve" smooth="yes"/>
      <point x="193" y="125" type="line" smooth="yes"/>
      <point x="193" y="50"/>
      <point x="257" y="-10"/>
    </contour>
    <contour>
      <point x="332" y="54" type="curve" smooth="yes"/>
      <point x="292" y="54"/>
      <point x="261" y="84"/>
      <point x="261" y="125" type="curve" smooth="yes"/>
      <point x="261" y="168"/>
      <point x="292" y="197"/>
      <point x="332" y="197" type="curve" smooth="yes"/>
      <point x="373" y="197"/>
      <point x="403" y="169"/>
      <point x="403" y="125" type="curve" smooth="yes"/>
      <point x="403" y="84"/>
      <point x="373" y="54"/>
    </contour>
  </outline>
</glyph>
<glyph name="u16F67" format="2">
  <advance width="500"/>
  <unicode hex="16F67"/>
  <outline>
    <contour>
      <point x="0" y="0" type="line"/>
      <point x="64" y="0" type="line"/>
      <point x="64" y="130" type="line" smooth="yes"/>
      <point x="64" y="178"/>
      <point x="86" y="204"/>
      <point x="129" y="204" type="curve" smooth="yes"/>
      <point x="167" y="204"/>
      <point x="193" y="181"/>
      <point x="193" y="134" type="curve" smooth="yes"/>
      <point x="193" y="0" type="line"/>
      <point x="257" y="0" type="line"/>
      <point x="257" y="134" type="line" smooth="yes"/>
      <point x="257" y="181"/>
      <point x="280" y="204"/>
      <point x="322" y="204" type="curve" smooth="yes"/>
      <point x="361" y="204"/>
      <point x="386" y="179"/>
      <point x="386" y="130" type="curve" smooth="yes"/>
      <point x="386" y="0" type="line"/>
      <point x="450" y="0" type="line"/>
      <point x="450" y="130" type="line" smooth="yes"/>
      <point x="450" y="239"/>
      <point x="394" y="268"/>
      <point x="322" y="268" type="curve" smooth="yes"/>
      <point x="284" y="268"/>
      <point x="242" y="254"/>
      <point x="225" y="224" type="curve"/>
      <point x="207" y="254"/>
      <point x="167" y="268"/>
      <point x="129" y="268" type="curve" smooth="yes"/>
      <point x="61" y="268"/>
      <point x="0" y="244"/>
      <point x="0" y="130" type="curve" smooth="yes"/>
    </contour>
  </outline>
</glyph>
<glyph name="u16F68" format="2">
  <advance width="500"/>
  <unicode hex="16F68"/>
  <outline>
    <contour>
      <point x="322" y="-10" type="curve" smooth="yes"/>
      <point x="394" y="-10"/>
      <point x="450" y="22"/>
      <point x="450" y="131" type="curve" smooth="yes"/>
      <point x="450" y="258" type="line"/>
      <point x="386" y="258" type="line"/>
      <point x="386" y="127" type="line" smooth="yes"/>
      <point x="386" y="78"/>
      <point x="361" y="54"/>
      <point x="322" y="54" type="curve" smooth="yes"/>
      <point x="279" y="54"/>
      <point x="257" y="78"/>
      <point x="257" y="126" type="curve" smooth="yes"/>
      <point x="257" y="141" type="line" smooth="yes"/>
      <point x="257" y="238"/>
      <point x="194" y="268"/>
      <point x="128" y="268" type="curve" smooth="yes"/>
      <point x="56" y="268"/>
      <point x="0" y="236"/>
      <point x="0" y="127" type="curve" smooth="yes"/>
      <point x="0" y="0" type="line"/>
      <point x="64" y="0" type="line"/>
      <point x="64" y="131" type="line" smooth="yes"/>
      <point x="64" y="180"/>
      <point x="89" y="204"/>
      <point x="128" y="204" type="curve" smooth="yes"/>
      <point x="170" y="204"/>
      <point x="193" y="180"/>
      <point x="193" y="140" type="curve" smooth="yes"/>
      <point x="193" y="124" type="line" smooth="yes"/>
      <point x="193" y="17"/>
      <point x="254" y="-10"/>
    </contour>
  </outline>
</glyph>
<glyph name="u16F69" format="2">
  <advance width="512"/>
  <unicode hex="16F69"/>
  <outline>
    <contour>
      <point x="325" y="-151" type="curve" smooth="yes"/>
      <point x="398" y="-151"/>
      <point x="462" y="-111"/>
      <point x="462" y="-60" type="curve" smooth="yes"/>
      <point x="462" y="-8"/>
      <point x="400" y="28"/>
      <point x="327" y="28" type="curve" smooth="yes"/>
      <point x="301" y="28"/>
      <point x="277" y="24"/>
      <point x="257" y="16" type="curve"/>
      <point x="257" y="127" type="line" smooth="yes"/>
      <point x="257" y="236"/>
      <point x="201" y="268"/>
      <point x="129" y="268" type="curve" smooth="yes"/>
      <point x="61" y="268"/>
      <point x="0" y="241"/>
      <point x="0" y="127" type="curve" smooth="yes"/>
      <point x="0" y="0" type="line"/>
      <point x="64" y="0" type="line"/>
      <point x="64" y="132" type="line" smooth="yes"/>
      <point x="64" y="180"/>
      <point x="86" y="204"/>
      <point x="129" y="204" type="curve" smooth="yes"/>
      <point x="168" y="204"/>
      <point x="193" y="180"/>
      <point x="193" y="131" type="curve" smooth="yes"/>
      <point x="193" y="-60" type="line" smooth="yes"/>
      <point x="193" y="-111"/>
      <point x="252" y="-151"/>
    </contour>
    <contour>
      <point x="327" y="-99" type="curve" smooth="yes"/>
      <point x="290" y="-99"/>
      <point x="259" y="-84"/>
      <point x="259" y="-62" type="curve" smooth="yes"/>
      <point x="259" y="-39"/>
      <point x="290" y="-24"/>
      <point x="327" y="-24" type="curve" smooth="yes"/>
      <point x="366" y="-24"/>
      <point x="396" y="-38"/>
      <point x="396" y="-62" type="curve" smooth="yes"/>
      <point x="396" y="-84"/>
      <point x="366" y="-99"/>
    </contour>
  </outline>
</glyph>
<glyph name="u16F6B" format="2">
  <advance width="461"/>
  <unicode hex="16F6B"/>
  <outline>
    <contour>
      <point x="128" y="-10" type="curve" smooth="yes"/>
      <point x="196" y="-10"/>
      <point x="257" y="17"/>
      <point x="257" y="131" type="curve" smooth="yes"/>
      <point x="257" y="198" type="line"/>
      <point x="411" y="198" type="line"/>
      <point x="411" y="258" type="line"/>
      <point x="193" y="258" type="line"/>
      <point x="193" y="126" type="line" smooth="yes"/>
      <point x="193" y="78"/>
      <point x="171" y="54"/>
      <point x="128" y="54" type="curve" smooth="yes"/>
      <point x="89" y="54"/>
      <point x="64" y="78"/>
      <point x="64" y="127" type="curve" smooth="yes"/>
      <point x="64" y="258" type="line"/>
      <point x="0" y="258" type="line"/>
      <point x="0" y="131" type="line" smooth="yes"/>
      <point x="0" y="22"/>
      <point x="56" y="-10"/>
    </contour>
  </outline>
</glyph>
<glyph name="u16F6C" format="2">
  <advance width="639"/>
  <unicode hex="16F6C"/>
  <outline>
    <contour>
      <point x="128" y="-10" type="curve" smooth="yes"/>
      <point x="196" y="-10"/>
      <point x="257" y="17"/>
      <point x="257" y="131" type="curve" smooth="yes"/>
      <point x="257" y="198" type="line"/>
      <point x="345" y="198" type="line"/>
      <point x="323" y="178"/>
      <point x="311" y="153"/>
      <point x="311" y="125" type="curve" smooth="yes"/>
      <point x="311" y="50"/>
      <point x="375" y="-10"/>
      <point x="450" y="-10" type="curve" smooth="yes"/>
      <point x="525" y="-10"/>
      <point x="589" y="50"/>
      <point x="589" y="125" type="curve"/>
      <point x="521" y="125" type="line"/>
      <point x="521" y="84"/>
      <point x="491" y="54"/>
      <point x="450" y="54" type="curve" smooth="yes"/>
      <point x="410" y="54"/>
      <point x="379" y="84"/>
      <point x="379" y="125" type="curve" smooth="yes"/>
      <point x="379" y="166"/>
      <point x="408" y="195"/>
      <point x="445" y="198" type="curve" smooth="yes"/>
      <point x="451" y="198" type="line"/>
      <point x="451" y="258" type="line"/>
      <point x="193" y="258" type="line"/>
      <point x="193" y="126" type="line" smooth="yes"/>
      <point x="193" y="78"/>
      <point x="171" y="54"/>
      <point x="128" y="54" type="curve" smooth="yes"/>
      <point x="89" y="54"/>
      <point x="64" y="78"/>
      <point x="64" y="127" type="curve" smooth="yes"/>
      <point x="64" y="258" type="line"/>
      <point x="0" y="258" type="line"/>
      <point x="0" y="131" type="line" smooth="yes"/>
      <point x="0" y="22"/>
      <point x="56" y="-10"/>
    </contour>
  </outline>
</glyph>
<glyph name="u16F6D" format="2">
  <advance width="630"/>
  <unicode hex="16F6D"/>
  <outline>
    <contour>
      <point x="443" y="-15" type="curve" smooth="yes"/>
      <point x="516" y="-15"/>
      <point x="580" y="25"/>
      <point x="580" y="76" type="curve" smooth="yes"/>
      <point x="580" y="128"/>
      <point x="518" y="164"/>
      <point x="445" y="164" type="curve" smooth="yes"/>
      <point x="423" y="164"/>
      <point x="402" y="161"/>
      <point x="383" y="155" type="curve"/>
      <point x="393" y="180"/>
      <point x="415" y="196"/>
      <point x="444" y="198" type="curve" smooth="yes"/>
      <point x="451" y="198" type="line"/>
      <point x="451" y="258" type="line"/>
      <point x="193" y="258" type="line"/>
      <point x="193" y="126" type="line" smooth="yes"/>
      <point x="193" y="78"/>
      <point x="171" y="54"/>
      <point x="128" y="54" type="curve" smooth="yes"/>
      <point x="89" y="54"/>
      <point x="64" y="78"/>
      <point x="64" y="127" type="curve" smooth="yes"/>
      <point x="64" y="258" type="line"/>
      <point x="0" y="258" type="line"/>
      <point x="0" y="131" type="line" smooth="yes"/>
      <point x="0" y="22"/>
      <point x="56" y="-10"/>
      <point x="128" y="-10" type="curve" smooth="yes"/>
      <point x="196" y="-10"/>
      <point x="257" y="17"/>
      <point x="257" y="131" type="curve" smooth="yes"/>
      <point x="257" y="198" type="line"/>
      <point x="351" y="198" type="line"/>
      <point x="320" y="169"/>
      <point x="308" y="135"/>
      <point x="308" y="95" type="curve" smooth="yes"/>
      <point x="308" y="24"/>
      <point x="370" y="-15"/>
    </contour>
    <contour>
      <point x="445" y="37" type="curve" smooth="yes"/>
      <point x="408" y="37"/>
      <point x="377" y="52"/>
      <point x="377" y="74" type="curve" smooth="yes"/>
      <point x="377" y="97"/>
      <point x="408" y="112"/>
      <point x="445" y="112" type="curve" smooth="yes"/>
      <point x="484" y="112"/>
      <point x="514" y="98"/>
      <point x="514" y="74" type="curve" smooth="yes"/>
      <point x="514" y="52"/>
      <point x="484" y="37"/>
    </contour>
  </outline>
</glyph>
<glyph name="u16F6F" format="2">
  <advance width="500"/>
  <unicode hex="16F6F"/>
  <outline>
    <contour>
      <point x="129" y="-10" type="curve" smooth="yes"/>
      <point x="167" y="-10"/>
      <point x="207" y="4"/>
      <point x="225" y="34" type="curve"/>
      <point x="242" y="4"/>
      <point x="284" y="-10"/>
      <point x="322" y="-10" type="curve" smooth="yes"/>
      <point x="394" y="-10"/>
      <point x="450" y="19"/>
      <point x="450" y="128" type="curve"/>
      <point x="386" y="128" type="line"/>
      <point x="386" y="79"/>
      <point x="361" y="54"/>
      <point x="322" y="54" type="curve" smooth="yes"/>
      <point x="280" y="54"/>
      <point x="257" y="77"/>
      <point x="257" y="124" type="curve" smooth="yes"/>
      <point x="257" y="258" type="line"/>
      <point x="193" y="258" type="line"/>
      <point x="193" y="124" type="line" smooth="yes"/>
      <point x="193" y="77"/>
      <point x="167" y="54"/>
      <point x="129" y="54" type="curve" smooth="yes"/>
      <point x="86" y="54"/>
      <point x="64" y="80"/>
      <point x="64" y="128" type="curve" smooth="yes"/>
      <point x="64" y="258" type="line"/>
      <point x="0" y="258" type="line"/>
      <point x="0" y="128" type="line" smooth="yes"/>
      <point x="0" y="14"/>
      <point x="61" y="-10"/>
    </contour>
  </outline>
</glyph>
<glyph name="u16F70" format="2">
  <advance width="529"/>
  <unicode hex="16F70"/>
  <outline>
    <contour>
      <point x="129" y="-10" type="curve" smooth="yes"/>
      <point x="171" y="-10"/>
      <point x="207" y="1"/>
      <point x="230" y="32" type="curve"/>
      <point x="254" y="6"/>
      <point x="295" y="-10"/>
      <point x="342" y="-10" type="curve" smooth="yes"/>
      <point x="415" y="-10"/>
      <point x="479" y="30"/>
      <point x="479" y="81" type="curve" smooth="yes"/>
      <point x="479" y="133"/>
      <point x="417" y="169"/>
      <point x="344" y="169" type="curve" smooth="yes"/>
      <point x="311" y="169"/>
      <point x="280" y="162"/>
      <point x="257" y="149" type="curve"/>
      <point x="257" y="258" type="line"/>
      <point x="193" y="258" type="line"/>
      <point x="193" y="127" type="line" smooth="yes"/>
      <point x="193" y="78"/>
      <point x="168" y="54"/>
      <point x="129" y="54" type="curve" smooth="yes"/>
      <point x="86" y="54"/>
      <point x="64" y="78"/>
      <point x="64" y="126" type="curve" smooth="yes"/>
      <point x="64" y="258" type="line"/>
      <point x="0" y="258" type="line"/>
      <point x="0" y="131" type="line" smooth="yes"/>
      <point x="0" y="17"/>
      <point x="61" y="-10"/>
    </contour>
    <contour>
      <point x="344" y="42" type="curve" smooth="yes"/>
      <point x="307" y="42"/>
      <point x="276" y="57"/>
      <point x="276" y="79" type="curve" smooth="yes"/>
      <point x="276" y="102"/>
      <point x="307" y="117"/>
      <point x="344" y="117" type="curve" smooth="yes"/>
      <point x="383" y="117"/>
      <point x="413" y="103"/>
      <point x="413" y="79" type="curve" smooth="yes"/>
      <point x="413" y="57"/>
      <point x="383" y="42"/>
    </contour>
  </outline>
</glyph>
<glyph name="u16F71" format="2">
  <advance width="351"/>
  <unicode hex="16F71"/>
  <outline>
    <contour>
      <point x="0" y="0" type="line"/>
      <point x="150" y="0" type="line" smooth="yes"/>
      <point x="264" y="0"/>
      <point x="301" y="47"/>
      <point x="301" y="115" type="curve" smooth="yes"/>
      <point x="301" y="187"/>
      <point x="263" y="229"/>
      <point x="150" y="229" type="curve" smooth="yes"/>
      <point x="0" y="229" type="line"/>
      <point x="0" y="169" type="line"/>
      <point x="160" y="169" type="line" smooth="yes"/>
      <point x="209" y="169"/>
      <point x="233" y="154"/>
      <point x="233" y="115" type="curve" smooth="yes"/>
      <point x="233" y="72"/>
      <point x="209" y="60"/>
      <point x="161" y="60" type="curve" smooth="yes"/>
      <point x="0" y="60" type="line"/>
    </contour>
  </outline>
</glyph>
<glyph name="u16F72" format="2">
  <advance width="321"/>
  <unicode hex="16F72"/>
  <outline>
    <contour>
      <point x="132" y="-10" type="line"/>
      <point x="248" y="-4"/>
      <point x="271" y="82"/>
      <point x="271" y="157" type="curve" smooth="yes"/>
      <point x="271" y="235"/>
      <point x="207" y="268"/>
      <point x="134" y="268" type="curve" smooth="yes"/>
      <point x="61" y="268"/>
      <point x="0" y="232"/>
      <point x="0" y="180" type="curve" smooth="yes"/>
      <point x="0" y="129"/>
      <point x="59" y="89"/>
      <point x="132" y="89" type="curve" smooth="yes"/>
      <point x="155" y="89"/>
      <point x="178" y="93"/>
      <point x="197" y="100" type="curve"/>
      <point x="191" y="67"/>
      <point x="163" y="46"/>
      <point x="127" y="46" type="curve"/>
    </contour>
    <contour>
      <point x="134" y="141" type="curve" smooth="yes"/>
      <point x="97" y="141"/>
      <point x="66" y="156"/>
      <point x="66" y="178" type="curve" smooth="yes"/>
      <point x="66" y="201"/>
      <point x="97" y="216"/>
      <point x="134" y="216" type="curve" smooth="yes"/>
      <point x="173" y="216"/>
      <point x="203" y="202"/>
      <point x="203" y="178" type="curve" smooth="yes"/>
      <point x="203" y="156"/>
      <point x="173" y="141"/>
    </contour>
  </outline>
</glyph>
<glyph name="u16F74" format="2">
  <advance width="331"/>
  <unicode hex="16F74"/>
  <outline>
    <contour>
      <point x="151" y="0" type="curve" smooth="yes"/>
      <point x="281" y="0" type="line"/>
      <point x="281" y="60" type="line"/>
      <point x="140" y="60" type="line" smooth="yes"/>
      <point x="92" y="60"/>
      <point x="68" y="72"/>
      <point x="68" y="115" type="curve" smooth="yes"/>
      <point x="68" y="154"/>
      <point x="92" y="169"/>
      <point x="141" y="169" type="curve" smooth="yes"/>
      <point x="281" y="169" type="line"/>
      <point x="281" y="341" type="line"/>
      <point x="217" y="341" type="line"/>
      <point x="217" y="229" type="line"/>
      <point x="151" y="229" type="line" smooth="yes"/>
      <point x="38" y="229"/>
      <point x="0" y="187"/>
      <point x="0" y="115" type="curve" smooth="yes"/>
      <point x="0" y="47"/>
      <point x="37" y="0"/>
    </contour>
  </outline>
</glyph>
<glyph name="u16F75" format="2">
  <advance width="264"/>
  <unicode hex="16F75"/>
  <outline>
    <contour>
      <point x="150" y="0" type="line"/>
      <point x="214" y="0" type="line"/>
      <point x="214" y="258" type="line"/>
      <point x="0" y="258" type="line"/>
      <point x="0" y="198" type="line"/>
      <point x="150" y="198" type="line"/>
    </contour>
  </outline>
</glyph>
<glyph name="u16F76" format="2">
  <advance width="307"/>
  <unicode hex="16F76"/>
  <outline>
    <contour>
      <point x="193" y="0" type="line"/>
      <point x="257" y="0" type="line"/>
      <point x="257" y="127" type="line" smooth="yes"/>
      <point x="257" y="236"/>
      <point x="201" y="268"/>
      <point x="129" y="268" type="curve" smooth="yes"/>
      <point x="61" y="268"/>
      <point x="0" y="246"/>
      <point x="0" y="132" type="curve"/>
      <point x="64" y="132" type="line"/>
      <point x="64" y="180"/>
      <point x="86" y="204"/>
      <point x="129" y="204" type="curve" smooth="yes"/>
      <point x="168" y="204"/>
      <point x="193" y="180"/>
      <point x="193" y="131" type="curve" smooth="yes"/>
    </contour>
  </outline>
</glyph>
<glyph name="u16F77" format="2">
  <advance width="264"/>
  <unicode hex="16F77"/>
  <outline>
    <contour>
      <point x="0" y="0" type="line"/>
      <point x="64" y="0" type="line"/>
      <point x="64" y="198" type="line"/>
      <point x="214" y="198" type="line"/>
      <point x="214" y="258" type="line"/>
      <point x="0" y="258" type="line"/>
    </contour>
  </outline>
</glyph>
<glyph name="u16F78" format="2">
  <advance width="307"/>
  <unicode hex="16F78"/>
  <outline>
    <contour>
      <point x="0" y="0" type="line"/>
      <point x="64" y="0" type="line"/>
      <point x="64" y="131" type="line" smooth="yes"/>
      <point x="64" y="180"/>
      <point x="89" y="204"/>
      <point x="128" y="204" type="curve" smooth="yes"/>
      <point x="171" y="204"/>
      <point x="193" y="180"/>
      <point x="193" y="132" type="curve"/>
      <point x="257" y="132" type="line"/>
      <point x="257" y="246"/>
      <point x="196" y="268"/>
      <point x="128" y="268" type="curve" smooth="yes"/>
      <point x="56" y="268"/>
      <point x="0" y="236"/>
      <point x="0" y="127" type="curve" smooth="yes"/>
    </contour>
  </outline>
</glyph>
<glyph name="u16F79" format="2">
  <advance width="114"/>
  <unicode hex="16F79"/>
  <outline>
    <contour>
      <point x="0" y="0" type="line"/>
      <point x="64" y="0" type="line"/>
      <point x="64" y="258" type="line"/>
      <point x="0" y="258" type="line"/>
    </contour>
  </outline>
</glyph>
<glyph name="u16F7A" format="2">
  <advance width="307"/>
  <unicode hex="16F7A"/>
  <outline>
    <contour>
      <point x="128" y="-10" type="curve" smooth="yes"/>
      <point x="196" y="-10"/>
      <point x="257" y="12"/>
      <point x="257" y="126" type="curve"/>
      <point x="193" y="126" type="line"/>
      <point x="193" y="78"/>
      <point x="171" y="54"/>
      <point x="128" y="54" type="curve" smooth="yes"/>
      <point x="89" y="54"/>
      <point x="64" y="78"/>
      <point x="64" y="127" type="curve" smooth="yes"/>
      <point x="64" y="258" type="line"/>
      <point x="0" y="258" type="line"/>
      <point x="0" y="131" type="line" smooth="yes"/>
      <point x="0" y="22"/>
      <point x="56" y="-10"/>
    </contour>
  </outline>
</glyph>
<glyph name="u16F7B" format="2">
  <advance width="284"/>
  <unicode hex="16F7B"/>
  <outline>
    <contour>
      <point x="170" y="0" type="line"/>
      <point x="234" y="0" type="line"/>
      <point x="234" y="258" type="line"/>
      <point x="170" y="258" type="line"/>
    </contour>
    <contour>
      <point x="0" y="0" type="line"/>
      <point x="64" y="0" type="line"/>
      <point x="64" y="258" type="line"/>
      <point x="0" y="258" type="line"/>
    </contour>
  </outline>
</glyph>
<glyph name="u16F7C" format="2">
  <advance width="328"/>
  <unicode hex="16F7C"/>
  <outline>
    <contour>
      <point x="214" y="-114" type="line"/>
      <point x="278" y="-114" type="line"/>
      <point x="278" y="125" type="line" smooth="yes"/>
      <point x="278" y="201"/>
      <point x="214" y="261"/>
      <point x="139" y="261" type="curve" smooth="yes"/>
      <point x="64" y="261"/>
      <point x="0" y="201"/>
      <point x="0" y="125" type="curve" smooth="yes"/>
      <point x="0" y="50"/>
      <point x="64" y="-10"/>
      <point x="139" y="-10" type="curve" smooth="yes"/>
      <point x="166" y="-10"/>
      <point x="192" y="2"/>
      <point x="214" y="22" type="curve"/>
    </contour>
    <contour>
      <point x="139" y="54" type="curve" smooth="yes"/>
      <point x="99" y="54"/>
      <point x="68" y="84"/>
      <point x="68" y="125" type="curve" smooth="yes"/>
      <point x="68" y="168"/>
      <point x="99" y="197"/>
      <point x="139" y="197" type="curve" smooth="yes"/>
      <point x="180" y="197"/>
      <point x="210" y="169"/>
      <point x="210" y="125" type="curve" smooth="yes"/>
      <point x="210" y="84"/>
      <point x="180" y="54"/>
    </contour>
  </outline>
</glyph>
<glyph name="u16F7D" format="2">
  <advance width="327"/>
  <unicode hex="16F7D"/>
  <outline>
    <contour>
      <point x="138" y="-10" type="curve" smooth="yes"/>
      <point x="213" y="-10"/>
      <point x="277" y="50"/>
      <point x="277" y="125" type="curve"/>
      <point x="209" y="125" type="line"/>
      <point x="209" y="84"/>
      <point x="179" y="54"/>
      <point x="138" y="54" type="curve" smooth="yes"/>
      <point x="98" y="54"/>
      <point x="68" y="84"/>
      <point x="68" y="125" type="curve" smooth="yes"/>
      <point x="68" y="168"/>
      <point x="78" y="208"/>
      <point x="141" y="231" type="curve"/>
      <point x="125" y="288" type="line"/>
      <point x="47" y="272"/>
      <point x="0" y="203"/>
      <point x="0" y="120" type="curve" smooth="yes"/>
      <point x="0" y="42"/>
      <point x="63" y="-10"/>
    </contour>
  </outline>
</glyph>
<glyph name="u16F7E" format="2">
  <advance width="319"/>
  <unicode hex="16F7E"/>
  <outline>
    <contour>
      <point x="135" y="-10" type="curve" smooth="yes"/>
      <point x="208" y="-10"/>
      <point x="269" y="26"/>
      <point x="269" y="78" type="curve" smooth="yes"/>
      <point x="269" y="129"/>
      <point x="210" y="169"/>
      <point x="137" y="169" type="curve" smooth="yes"/>
      <point x="114" y="169"/>
      <point x="91" y="165"/>
      <point x="72" y="158" type="curve"/>
      <point x="78" y="191"/>
      <point x="92" y="220"/>
      <point x="137" y="231" type="curve"/>
      <point x="121" y="288" type="line"/>
      <point x="15" y="264"/>
      <point x="0" y="171"/>
      <point x="0" y="120" type="curve" smooth="yes"/>
      <point x="0" y="22"/>
      <point x="62" y="-10"/>
    </contour>
    <contour>
      <point x="135" y="42" type="curve" smooth="yes"/>
      <point x="96" y="42"/>
      <point x="66" y="56"/>
      <point x="66" y="80" type="curve" smooth="yes"/>
      <point x="66" y="102"/>
      <point x="96" y="117"/>
      <point x="135" y="117" type="curve" smooth="yes"/>
      <point x="172" y="117"/>
      <point x="203" y="102"/>
      <point x="203" y="80" type="curve" smooth="yes"/>
      <point x="203" y="57"/>
      <point x="172" y="42"/>
    </contour>
  </outline>
</glyph>
<glyph name="u16F7F" format="2">
  <advance width="331"/>
  <unicode hex="16F7F"/>
  <outline>
    <contour>
      <point x="0" y="0" type="line"/>
      <point x="64" y="0" type="line"/>
      <point x="64" y="112" type="line"/>
      <point x="130" y="112" type="line" smooth="yes"/>
      <point x="243" y="112"/>
      <point x="281" y="154"/>
      <point x="281" y="226" type="curve" smooth="yes"/>
      <point x="281" y="294"/>
      <point x="244" y="341"/>
      <point x="130" y="341" type="curve" smooth="yes"/>
      <point x="0" y="341" type="line"/>
      <point x="0" y="281" type="line"/>
      <point x="141" y="281" type="line" smooth="yes"/>
      <point x="189" y="281"/>
      <point x="213" y="269"/>
      <point x="213" y="226" type="curve" smooth="yes"/>
      <point x="213" y="187"/>
      <point x="189" y="172"/>
      <point x="140" y="172" type="curve" smooth="yes"/>
      <point x="0" y="172" type="line"/>
    </contour>
    <contour>
      <point x="0" y="311" type="line"/>
      <point x="0" y="113" type="line"/>
      <point x="64" y="113" type="line"/>
      <point x="64" y="311" type="line"/>
    </contour>
  </outline>
</glyph>
<glyph name="u16F81" format="2">
  <advance width="325"/>
  <unicode hex="16F81"/>
  <outline>
    <contour>
      <point x="275" y="52" type="curve"/>
      <point x="230" y="99" type="line"/>
      <point x="211" y="74"/>
      <point x="176" y="54"/>
      <point x="138" y="54" type="curve" smooth="yes"/>
      <point x="98" y="54"/>
      <point x="68" y="84"/>
      <point x="68" y="125" type="curve" smooth="yes"/>
      <point x="68" y="175"/>
      <point x="98" y="230"/>
      <point x="141" y="230" type="curve" smooth="yes"/>
      <point x="161" y="230"/>
      <point x="172" y="218"/>
      <point x="172" y="202" type="curve" smooth="yes"/>
      <point x="172" y="188"/>
      <point x="164" y="170"/>
      <point x="147" y="156" type="curve"/>
      <point x="194" y="111" type="line"/>
      <point x="231" y="138"/>
      <point x="249" y="173"/>
      <point x="249" y="204" type="curve" smooth="yes"/>
      <point x="249" y="250"/>
      <point x="211" y="289"/>
      <point x="150" y="289" type="curve" smooth="yes"/>
      <point x="66" y="289"/>
      <point x="0" y="215"/>
      <point x="0" y="120" type="curve" smooth="yes"/>
      <point x="0" y="42"/>
      <point x="63" y="-10"/>
      <point x="138" y="-10" type="curve" smooth="yes"/>
      <point x="204" y="-10"/>
      <point x="250" y="19"/>
    </contour>
  </outline>
</glyph>
<glyph name="u16F83" format="2">
  <advance width="398"/>
  <unicode hex="16F83"/>
  <outline>
    <contour>
      <point x="132" y="0" type="line"/>
      <point x="217" y="0" type="line"/>
      <point x="348" y="258" type="line"/>
      <point x="271" y="258" type="line"/>
      <point x="154" y="12" type="line"/>
      <point x="197" y="12" type="line"/>
      <point x="77" y="258" type="line"/>
      <point x="0" y="258" type="line"/>
    </contour>
  </outline>
</glyph>
<glyph name="u16F84" format="2">
  <advance width="398"/>
  <unicode hex="16F84"/>
  <outline>
    <contour>
      <point x="132" y="258" type="line"/>
      <point x="0" y="0" type="line"/>
      <point x="77" y="0" type="line"/>
      <point x="197" y="246" type="line"/>
      <point x="154" y="246" type="line"/>
      <point x="271" y="0" type="line"/>
      <point x="348" y="0" type="line"/>
      <point x="217" y="258" type="line"/>
    </contour>
  </outline>
</glyph>
<glyph name="u16F86" format="2">
  <advance width="333"/>
  <unicode hex="16F86"/>
  <outline>
    <contour>
      <point x="219" y="0" type="line"/>
      <point x="283" y="0" type="line"/>
      <point x="283" y="341" type="line"/>
      <point x="219" y="341" type="line"/>
    </contour>
    <contour>
      <point x="108" y="286" type="curve"/>
      <point x="65" y="328" type="line"/>
      <point x="22" y="291"/>
      <point x="0" y="252"/>
      <point x="0" y="214" type="curve" smooth="yes"/>
      <point x="0" y="142"/>
      <point x="33" y="86"/>
      <point x="142" y="86" type="curve" smooth="yes"/>
      <point x="269" y="86" type="line"/>
      <point x="269" y="150" type="line"/>
      <point x="138" y="150" type="line" smooth="yes"/>
      <point x="89" y="150"/>
      <point x="65" y="175"/>
      <point x="65" y="214" type="curve" smooth="yes"/>
      <point x="65" y="241"/>
      <point x="80" y="266"/>
    </contour>
  </outline>
</glyph>
<glyph name="u16F90" format="2">
  <advance width="834"/>
  <unicode hex="16F90"/>
  <outline>
    <contour>
      <point x="576" y="462" type="line"/>
      <point x="616" y="462" type="line"/>
      <point x="616" y="595" type="line"/>
      <point x="664" y="595" type="line"/>
      <point x="664" y="629" type="line"/>
      <point x="528" y="629" type="line"/>
      <point x="528" y="595" type="line"/>
      <point x="576" y="595" type="line"/>
    </contour>
    <contour>
      <point x="50" y="0" type="line"/>
      <point x="164" y="0" type="line"/>
      <point x="164" y="42" type="line"/>
      <point x="91" y="42" type="line"/>
      <point x="91" y="114" type="line"/>
      <point x="50" y="114" type="line"/>
    </contour>
    <contour>
      <point x="209" y="0" type="line"/>
      <point x="312" y="0" type="line"/>
      <point x="312" y="42" type="line"/>
      <point x="209" y="42" type="line"/>
    </contour>
    <contour>
      <point x="50" y="160" type="line"/>
      <point x="91" y="160" type="line"/>
      <point x="91" y="262" type="line"/>
      <point x="50" y="262" type="line"/>
    </contour>
    <contour>
      <point x="50" y="307" type="line"/>
      <point x="91" y="307" type="line"/>
      <point x="91" y="409" type="line"/>
      <point x="50" y="409" type="line"/>
    </contour>
    <contour>
      <point x="357" y="0" type="line"/>
      <point x="479" y="0" type="line"/>
      <point x="479" y="42" type="line"/>
      <point x="357" y="42" type="line"/>
    </contour>
    <contour>
      <point x="214" y="236" type="curve" smooth="yes"/>
      <point x="224" y="236"/>
      <point x="230" y="243"/>
      <point x="230" y="253" type="curve" smooth="yes"/>
      <point x="230" y="262"/>
      <point x="224" y="269"/>
      <point x="214" y="269" type="curve" smooth="yes"/>
      <point x="204" y="269"/>
      <point x="197" y="262"/>
      <point x="197" y="253" type="curve" smooth="yes"/>
      <point x="197" y="243"/>
      <point x="204" y="236"/>
    </contour>
    <contour>
      <point x="264" y="204" type="curve" smooth="yes"/>
      <point x="274" y="204"/>
      <point x="280" y="211"/>
      <point x="280" y="221" type="curve" smooth="yes"/>
      <point x="280" y="230"/>
      <point x="274" y="237"/>
      <point x="264" y="237" type="curve" smooth="yes"/>
      <point x="254" y="237"/>
      <point x="247" y="230"/>
      <point x="247" y="221" type="curve" smooth="yes"/>
      <point x="247" y="211"/>
      <point x="254" y="204"/>
    </contour>
    <contour>
      <point x="182" y="286" type="curve" smooth="yes"/>
      <point x="192" y="286"/>
      <point x="198" y="293"/>
      <point x="198" y="303" type="curve" smooth="yes"/>
      <point x="198" y="312"/>
      <point x="192" y="319"/>
      <point x="182" y="319" type="curve" smooth="yes"/>
      <point x="172" y="319"/>
      <point x="165" y="312"/>
      <point x="165" y="303" type="curve" smooth="yes"/>
      <point x="165" y="293"/>
      <point x="172" y="286"/>
    </contour>
    <contour>
      <point x="170" y="344" type="curve" smooth="yes"/>
      <point x="180" y="344"/>
      <point x="186" y="351"/>
      <point x="186" y="361" type="curve" smooth="yes"/>
      <point x="186" y="370"/>
      <point x="180" y="377"/>
      <point x="170" y="377" type="curve" smooth="yes"/>
      <point x="160" y="377"/>
      <point x="153" y="370"/>
      <point x="153" y="361" type="curve" smooth="yes"/>
      <point x="153" y="351"/>
      <point x="160" y="344"/>
    </contour>
    <contour>
      <point x="322" y="192" type="curve" smooth="yes"/>
      <point x="332" y="192"/>
      <point x="338" y="199"/>
      <point x="338" y="209" type="curve" smooth="yes"/>
      <point x="338" y="218"/>
      <point x="332" y="225"/>
      <point x="322" y="225" type="curve" smooth="yes"/>
      <point x="312" y="225"/>
      <point x="305" y="218"/>
      <point x="305" y="209" type="curve" smooth="yes"/>
      <point x="305" y="199"/>
      <point x="312" y="192"/>
    </contour>
    <contour>
      <point x="50" y="455" type="line"/>
      <point x="91" y="455" type="line"/>
      <point x="91" y="557" type="line"/>
      <point x="50" y="557" type="line"/>
    </contour>
    <contour>
      <point x="522" y="0" type="line"/>
      <point x="625" y="0" type="line"/>
      <point x="625" y="42" type="line"/>
      <point x="522" y="42" type="line"/>
    </contour>
    <contour>
      <point x="380" y="203" type="curve" smooth="yes"/>
      <point x="390" y="203"/>
      <point x="396" y="210"/>
      <point x="396" y="220" type="curve" smooth="yes"/>
      <point x="396" y="229"/>
      <point x="390" y="236"/>
      <point x="380" y="236" type="curve" smooth="yes"/>
      <point x="370" y="236"/>
      <point x="363" y="229"/>
      <point x="363" y="220" type="curve" smooth="yes"/>
      <point x="363" y="210"/>
      <point x="370" y="203"/>
    </contour>
    <contour>
      <point x="182" y="401" type="curve" smooth="yes"/>
      <point x="192" y="401"/>
      <point x="198" y="408"/>
      <point x="198" y="418" type="curve" smooth="yes"/>
      <point x="198" y="427"/>
      <point x="192" y="434"/>
      <point x="182" y="434" type="curve" smooth="yes"/>
      <point x="172" y="434"/>
      <point x="165" y="427"/>
      <point x="165" y="418" type="curve" smooth="yes"/>
      <point x="165" y="408"/>
      <point x="172" y="401"/>
    </contour>
    <contour>
      <point x="429" y="236" type="curve" smooth="yes"/>
      <point x="439" y="236"/>
      <point x="445" y="243"/>
      <point x="445" y="253" type="curve" smooth="yes"/>
      <point x="445" y="262"/>
      <point x="439" y="269"/>
      <point x="429" y="269" type="curve" smooth="yes"/>
      <point x="419" y="269"/>
      <point x="412" y="262"/>
      <point x="412" y="253" type="curve" smooth="yes"/>
      <point x="412" y="243"/>
      <point x="419" y="236"/>
    </contour>
    <contour>
      <point x="214" y="452" type="curve" smooth="yes"/>
      <point x="224" y="452"/>
      <point x="230" y="459"/>
      <point x="230" y="469" type="curve" smooth="yes"/>
      <point x="230" y="478"/>
      <point x="224" y="485"/>
      <point x="214" y="485" type="curve" smooth="yes"/>
      <point x="204" y="485"/>
      <point x="197" y="478"/>
      <point x="197" y="469" type="curve" smooth="yes"/>
      <point x="197" y="459"/>
      <point x="204" y="452"/>
    </contour>
    <contour>
      <point x="462" y="286" type="curve" smooth="yes"/>
      <point x="472" y="286"/>
      <point x="478" y="293"/>
      <point x="478" y="303" type="curve" smooth="yes"/>
      <point x="478" y="312"/>
      <point x="472" y="319"/>
      <point x="462" y="319" type="curve" smooth="yes"/>
      <point x="452" y="319"/>
      <point x="445" y="312"/>
      <point x="445" y="303" type="curve" smooth="yes"/>
      <point x="445" y="293"/>
      <point x="452" y="286"/>
    </contour>
    <contour>
      <point x="264" y="484" type="curve" smooth="yes"/>
      <point x="274" y="484"/>
      <point x="280" y="491"/>
      <point x="280" y="501" type="curve" smooth="yes"/>
      <point x="280" y="510"/>
      <point x="274" y="517"/>
      <point x="264" y="517" type="curve" smooth="yes"/>
      <point x="254" y="517"/>
      <point x="247" y="510"/>
      <point x="247" y="501" type="curve" smooth="yes"/>
      <point x="247" y="491"/>
      <point x="254" y="484"/>
    </contour>
    <contour>
      <point x="50" y="602" type="line"/>
      <point x="91" y="602" type="line"/>
      <point x="91" y="676" type="line"/>
      <point x="164" y="676" type="line"/>
      <point x="164" y="717" type="line"/>
      <point x="50" y="717" type="line"/>
    </contour>
    <contour>
      <point x="670" y="0" type="line"/>
      <point x="784" y="0" type="line"/>
      <point x="784" y="114" type="line"/>
      <point x="743" y="114" type="line"/>
      <point x="743" y="42" type="line"/>
      <point x="670" y="42" type="line"/>
    </contour>
    <contour>
      <point x="474" y="344" type="curve" smooth="yes"/>
      <point x="484" y="344"/>
      <point x="490" y="351"/>
      <point x="490" y="361" type="curve" smooth="yes"/>
      <point x="490" y="370"/>
      <point x="484" y="377"/>
      <point x="474" y="377" type="curve" smooth="yes"/>
      <point x="464" y="377"/>
      <point x="457" y="370"/>
      <point x="457" y="361" type="curve" smooth="yes"/>
      <point x="457" y="351"/>
      <point x="464" y="344"/>
    </contour>
    <contour>
      <point x="322" y="496" type="curve" smooth="yes"/>
      <point x="332" y="496"/>
      <point x="338" y="503"/>
      <point x="338" y="513" type="curve" smooth="yes"/>
      <point x="338" y="522"/>
      <point x="332" y="529"/>
      <point x="322" y="529" type="curve" smooth="yes"/>
      <point x="312" y="529"/>
      <point x="305" y="522"/>
      <point x="305" y="513" type="curve" smooth="yes"/>
      <point x="305" y="503"/>
      <point x="312" y="496"/>
    </contour>
    <contour>
      <point x="462" y="401" type="curve" smooth="yes"/>
      <point x="472" y="401"/>
      <point x="478" y="408"/>
      <point x="478" y="418" type="curve" smooth="yes"/>
      <point x="478" y="427"/>
      <point x="472" y="434"/>
      <point x="462" y="434" type="curve" smooth="yes"/>
      <point x="452" y="434"/>
      <point x="445" y="427"/>
      <point x="445" y="418" type="curve" smooth="yes"/>
      <point x="445" y="408"/>
      <point x="452" y="401"/>
    </contour>
    <contour>
      <point x="380" y="484" type="curve" smooth="yes"/>
      <point x="390" y="484"/>
      <point x="396" y="491"/>
      <point x="396" y="501" type="curve" smooth="yes"/>
      <point x="396" y="510"/>
      <point x="390" y="517"/>
      <point x="380" y="517" type="curve" smooth="yes"/>
      <point x="370" y="517"/>
      <point x="363" y="510"/>
      <point x="363" y="501" type="curve" smooth="yes"/>
      <point x="363" y="491"/>
      <point x="370" y="484"/>
    </contour>
    <contour>
      <point x="429" y="451" type="curve" smooth="yes"/>
      <point x="439" y="451"/>
      <point x="445" y="458"/>
      <point x="445" y="468" type="curve" smooth="yes"/>
      <point x="445" y="477"/>
      <point x="439" y="484"/>
      <point x="429" y="484" type="curve" smooth="yes"/>
      <point x="419" y="484"/>
      <point x="412" y="477"/>
      <point x="412" y="468" type="curve" smooth="yes"/>
      <point x="412" y="458"/>
      <point x="419" y="451"/>
    </contour>
    <contour>
      <point x="209" y="676" type="line"/>
      <point x="312" y="676" type="line"/>
      <point x="312" y="717" type="line"/>
      <point x="209" y="717" type="line"/>
    </contour>
    <contour>
      <point x="743" y="160" type="line"/>
      <point x="784" y="160" type="line"/>
      <point x="784" y="262" type="line"/>
      <point x="743" y="262" type="line"/>
    </contour>
    <contour>
      <point x="357" y="676" type="line"/>
      <point x="479" y="676" type="line"/>
      <point x="479" y="717" type="line"/>
      <point x="357" y="717" type="line"/>
    </contour>
    <contour>
      <point x="743" y="307" type="line"/>
      <point x="784" y="307" type="line"/>
      <point x="784" y="409" type="line"/>
      <point x="743" y="409" type="line"/>
    </contour>
    <contour>
      <point x="743" y="455" type="line"/>
      <point x="784" y="455" type="line"/>
      <point x="784" y="557" type="line"/>
      <point x="743" y="557" type="line"/>
    </contour>
    <contour>
      <point x="522" y="676" type="line"/>
      <point x="625" y="676" type="line"/>
      <point x="625" y="717" type="line"/>
      <point x="522" y="717" type="line"/>
    </contour>
    <contour>
      <point x="743" y="602" type="line"/>
      <point x="784" y="602" type="line"/>
      <point x="784" y="717" type="line"/>
      <point x="670" y="717" type="line"/>
      <point x="670" y="676" type="line"/>
      <point x="743" y="676" type="line"/>
    </contour>
  </outline>
</glyph>
<glyph name="u16F91" format="2">
  <advance width="834"/>
  <unicode hex="16F91"/>
  <outline>
    <contour>
      <point x="401" y="467" type="line"/>
      <point x="441" y="467" type="line"/>
      <point x="441" y="600" type="line"/>
      <point x="489" y="600" type="line"/>
      <point x="489" y="634" type="line"/>
      <point x="353" y="634" type="line"/>
      <point x="353" y="600" type="line"/>
      <point x="401" y="600" type="line"/>
    </contour>
    <contour>
      <point x="50" y="0" type="line"/>
      <point x="164" y="0" type="line"/>
      <point x="164" y="42" type="line"/>
      <point x="91" y="42" type="line"/>
      <point x="91" y="114" type="line"/>
      <point x="50" y="114" type="line"/>
    </contour>
    <contour>
      <point x="209" y="0" type="line"/>
      <point x="312" y="0" type="line"/>
      <point x="312" y="42" type="line"/>
      <point x="209" y="42" type="line"/>
    </contour>
    <contour>
      <point x="50" y="160" type="line"/>
      <point x="91" y="160" type="line"/>
      <point x="91" y="262" type="line"/>
      <point x="50" y="262" type="line"/>
    </contour>
    <contour>
      <point x="50" y="307" type="line"/>
      <point x="91" y="307" type="line"/>
      <point x="91" y="409" type="line"/>
      <point x="50" y="409" type="line"/>
    </contour>
    <contour>
      <point x="357" y="0" type="line"/>
      <point x="479" y="0" type="line"/>
      <point x="479" y="42" type="line"/>
      <point x="357" y="42" type="line"/>
    </contour>
    <contour>
      <point x="314" y="136" type="curve" smooth="yes"/>
      <point x="324" y="136"/>
      <point x="330" y="143"/>
      <point x="330" y="153" type="curve" smooth="yes"/>
      <point x="330" y="162"/>
      <point x="324" y="169"/>
      <point x="314" y="169" type="curve" smooth="yes"/>
      <point x="304" y="169"/>
      <point x="297" y="162"/>
      <point x="297" y="153" type="curve" smooth="yes"/>
      <point x="297" y="143"/>
      <point x="304" y="136"/>
    </contour>
    <contour>
      <point x="364" y="104" type="curve" smooth="yes"/>
      <point x="374" y="104"/>
      <point x="380" y="111"/>
      <point x="380" y="121" type="curve" smooth="yes"/>
      <point x="380" y="130"/>
      <point x="374" y="137"/>
      <point x="364" y="137" type="curve" smooth="yes"/>
      <point x="354" y="137"/>
      <point x="347" y="130"/>
      <point x="347" y="121" type="curve" smooth="yes"/>
      <point x="347" y="111"/>
      <point x="354" y="104"/>
    </contour>
    <contour>
      <point x="282" y="186" type="curve" smooth="yes"/>
      <point x="292" y="186"/>
      <point x="298" y="193"/>
      <point x="298" y="203" type="curve" smooth="yes"/>
      <point x="298" y="212"/>
      <point x="292" y="219"/>
      <point x="282" y="219" type="curve" smooth="yes"/>
      <point x="272" y="219"/>
      <point x="265" y="212"/>
      <point x="265" y="203" type="curve" smooth="yes"/>
      <point x="265" y="193"/>
      <point x="272" y="186"/>
    </contour>
    <contour>
      <point x="270" y="244" type="curve" smooth="yes"/>
      <point x="280" y="244"/>
      <point x="286" y="251"/>
      <point x="286" y="261" type="curve" smooth="yes"/>
      <point x="286" y="270"/>
      <point x="280" y="277"/>
      <point x="270" y="277" type="curve" smooth="yes"/>
      <point x="260" y="277"/>
      <point x="253" y="270"/>
      <point x="253" y="261" type="curve" smooth="yes"/>
      <point x="253" y="251"/>
      <point x="260" y="244"/>
    </contour>
    <contour>
      <point x="422" y="92" type="curve" smooth="yes"/>
      <point x="432" y="92"/>
      <point x="438" y="99"/>
      <point x="438" y="109" type="curve" smooth="yes"/>
      <point x="438" y="118"/>
      <point x="432" y="125"/>
      <point x="422" y="125" type="curve" smooth="yes"/>
      <point x="412" y="125"/>
      <point x="405" y="118"/>
      <point x="405" y="109" type="curve" smooth="yes"/>
      <point x="405" y="99"/>
      <point x="412" y="92"/>
    </contour>
    <contour>
      <point x="50" y="455" type="line"/>
      <point x="91" y="455" type="line"/>
      <point x="91" y="557" type="line"/>
      <point x="50" y="557" type="line"/>
    </contour>
    <contour>
      <point x="522" y="0" type="line"/>
      <point x="625" y="0" type="line"/>
      <point x="625" y="42" type="line"/>
      <point x="522" y="42" type="line"/>
    </contour>
    <contour>
      <point x="480" y="103" type="curve" smooth="yes"/>
      <point x="490" y="103"/>
      <point x="496" y="110"/>
      <point x="496" y="120" type="curve" smooth="yes"/>
      <point x="496" y="129"/>
      <point x="490" y="136"/>
      <point x="480" y="136" type="curve" smooth="yes"/>
      <point x="470" y="136"/>
      <point x="463" y="129"/>
      <point x="463" y="120" type="curve" smooth="yes"/>
      <point x="463" y="110"/>
      <point x="470" y="103"/>
    </contour>
    <contour>
      <point x="282" y="301" type="curve" smooth="yes"/>
      <point x="292" y="301"/>
      <point x="298" y="308"/>
      <point x="298" y="318" type="curve" smooth="yes"/>
      <point x="298" y="327"/>
      <point x="292" y="334"/>
      <point x="282" y="334" type="curve" smooth="yes"/>
      <point x="272" y="334"/>
      <point x="265" y="327"/>
      <point x="265" y="318" type="curve" smooth="yes"/>
      <point x="265" y="308"/>
      <point x="272" y="301"/>
    </contour>
    <contour>
      <point x="529" y="136" type="curve" smooth="yes"/>
      <point x="539" y="136"/>
      <point x="545" y="143"/>
      <point x="545" y="153" type="curve" smooth="yes"/>
      <point x="545" y="162"/>
      <point x="539" y="169"/>
      <point x="529" y="169" type="curve" smooth="yes"/>
      <point x="519" y="169"/>
      <point x="512" y="162"/>
      <point x="512" y="153" type="curve" smooth="yes"/>
      <point x="512" y="143"/>
      <point x="519" y="136"/>
    </contour>
    <contour>
      <point x="314" y="352" type="curve" smooth="yes"/>
      <point x="324" y="352"/>
      <point x="330" y="359"/>
      <point x="330" y="369" type="curve" smooth="yes"/>
      <point x="330" y="378"/>
      <point x="324" y="385"/>
      <point x="314" y="385" type="curve" smooth="yes"/>
      <point x="304" y="385"/>
      <point x="297" y="378"/>
      <point x="297" y="369" type="curve" smooth="yes"/>
      <point x="297" y="359"/>
      <point x="304" y="352"/>
    </contour>
    <contour>
      <point x="562" y="186" type="curve" smooth="yes"/>
      <point x="572" y="186"/>
      <point x="578" y="193"/>
      <point x="578" y="203" type="curve" smooth="yes"/>
      <point x="578" y="212"/>
      <point x="572" y="219"/>
      <point x="562" y="219" type="curve" smooth="yes"/>
      <point x="552" y="219"/>
      <point x="545" y="212"/>
      <point x="545" y="203" type="curve" smooth="yes"/>
      <point x="545" y="193"/>
      <point x="552" y="186"/>
    </contour>
    <contour>
      <point x="364" y="384" type="curve" smooth="yes"/>
      <point x="374" y="384"/>
      <point x="380" y="391"/>
      <point x="380" y="401" type="curve" smooth="yes"/>
      <point x="380" y="410"/>
      <point x="374" y="417"/>
      <point x="364" y="417" type="curve" smooth="yes"/>
      <point x="354" y="417"/>
      <point x="347" y="410"/>
      <point x="347" y="401" type="curve" smooth="yes"/>
      <point x="347" y="391"/>
      <point x="354" y="384"/>
    </contour>
    <contour>
      <point x="50" y="602" type="line"/>
      <point x="91" y="602" type="line"/>
      <point x="91" y="676" type="line"/>
      <point x="164" y="676" type="line"/>
      <point x="164" y="717" type="line"/>
      <point x="50" y="717" type="line"/>
    </contour>
    <contour>
      <point x="670" y="0" type="line"/>
      <point x="784" y="0" type="line"/>
      <point x="784" y="114" type="line"/>
      <point x="743" y="114" type="line"/>
      <point x="743" y="42" type="line"/>
      <point x="670" y="42" type="line"/>
    </contour>
    <contour>
      <point x="574" y="244" type="curve" smooth="yes"/>
      <point x="584" y="244"/>
      <point x="590" y="251"/>
      <point x="590" y="261" type="curve" smooth="yes"/>
      <point x="590" y="270"/>
      <point x="584" y="277"/>
      <point x="574" y="277" type="curve" smooth="yes"/>
      <point x="564" y="277"/>
      <point x="557" y="270"/>
      <point x="557" y="261" type="curve" smooth="yes"/>
      <point x="557" y="251"/>
      <point x="564" y="244"/>
    </contour>
    <contour>
      <point x="422" y="396" type="curve" smooth="yes"/>
      <point x="432" y="396"/>
      <point x="438" y="403"/>
      <point x="438" y="413" type="curve" smooth="yes"/>
      <point x="438" y="422"/>
      <point x="432" y="429"/>
      <point x="422" y="429" type="curve" smooth="yes"/>
      <point x="412" y="429"/>
      <point x="405" y="422"/>
      <point x="405" y="413" type="curve" smooth="yes"/>
      <point x="405" y="403"/>
      <point x="412" y="396"/>
    </contour>
    <contour>
      <point x="562" y="301" type="curve" smooth="yes"/>
      <point x="572" y="301"/>
      <point x="578" y="308"/>
      <point x="578" y="318" type="curve" smooth="yes"/>
      <point x="578" y="327"/>
      <point x="572" y="334"/>
      <point x="562" y="334" type="curve" smooth="yes"/>
      <point x="552" y="334"/>
      <point x="545" y="327"/>
      <point x="545" y="318" type="curve" smooth="yes"/>
      <point x="545" y="308"/>
      <point x="552" y="301"/>
    </contour>
    <contour>
      <point x="480" y="384" type="curve" smooth="yes"/>
      <point x="490" y="384"/>
      <point x="496" y="391"/>
      <point x="496" y="401" type="curve" smooth="yes"/>
      <point x="496" y="410"/>
      <point x="490" y="417"/>
      <point x="480" y="417" type="curve" smooth="yes"/>
      <point x="470" y="417"/>
      <point x="463" y="410"/>
      <point x="463" y="401" type="curve" smooth="yes"/>
      <point x="463" y="391"/>
      <point x="470" y="384"/>
    </contour>
    <contour>
      <point x="529" y="351" type="curve" smooth="yes"/>
      <point x="539" y="351"/>
      <point x="545" y="358"/>
      <point x="545" y="368" type="curve" smooth="yes"/>
      <point x="545" y="377"/>
      <point x="539" y="384"/>
      <point x="529" y="384" type="curve" smooth="yes"/>
      <point x="519" y="384"/>
      <point x="512" y="377"/>
      <point x="512" y="368" type="curve" smooth="yes"/>
      <point x="512" y="358"/>
      <point x="519" y="351"/>
    </contour>
    <contour>
      <point x="209" y="676" type="line"/>
      <point x="312" y="676" type="line"/>
      <point x="312" y="717" type="line"/>
      <point x="209" y="717" type="line"/>
    </contour>
    <contour>
      <point x="743" y="160" type="line"/>
      <point x="784" y="160" type="line"/>
      <point x="784" y="262" type="line"/>
      <point x="743" y="262" type="line"/>
    </contour>
    <contour>
      <point x="357" y="676" type="line"/>
      <point x="479" y="676" type="line"/>
      <point x="479" y="717" type="line"/>
      <point x="357" y="717" type="line"/>
    </contour>
    <contour>
      <point x="743" y="307" type="line"/>
      <point x="784" y="307" type="line"/>
      <point x="784" y="409" type="line"/>
      <point x="743" y="409" type="line"/>
    </contour>
    <contour>
      <point x="743" y="455" type="line"/>
      <point x="784" y="455" type="line"/>
      <point x="784" y="557" type="line"/>
      <point x="743" y="557" type="line"/>
    </contour>
    <contour>
      <point x="522" y="676" type="line"/>
      <point x="625" y="676" type="line"/>
      <point x="625" y="717" type="line"/>
      <point x="522" y="717" type="line"/>
    </contour>
    <contour>
      <point x="743" y="602" type="line"/>
      <point x="784" y="602" type="line"/>
      <point x="784" y="717" type="line"/>
      <point x="670" y="717" type="line"/>
      <point x="670" y="676" type="line"/>
      <point x="743" y="676" type="line"/>
    </contour>
  </outline>
</glyph>
<glyph name="u16F92" format="2">
  <advance width="834"/>
  <unicode hex="16F92"/>
  <outline>
    <contour>
      <point x="401" y="77" type="line"/>
      <point x="441" y="77" type="line"/>
      <point x="441" y="210" type="line"/>
      <point x="489" y="210" type="line"/>
      <point x="489" y="244" type="line"/>
      <point x="353" y="244" type="line"/>
      <point x="353" y="210" type="line"/>
      <point x="401" y="210" type="line"/>
    </contour>
    <contour>
      <point x="50" y="0" type="line"/>
      <point x="164" y="0" type="line"/>
      <point x="164" y="42" type="line"/>
      <point x="91" y="42" type="line"/>
      <point x="91" y="114" type="line"/>
      <point x="50" y="114" type="line"/>
    </contour>
    <contour>
      <point x="209" y="0" type="line"/>
      <point x="312" y="0" type="line"/>
      <point x="312" y="42" type="line"/>
      <point x="209" y="42" type="line"/>
    </contour>
    <contour>
      <point x="50" y="160" type="line"/>
      <point x="91" y="160" type="line"/>
      <point x="91" y="262" type="line"/>
      <point x="50" y="262" type="line"/>
    </contour>
    <contour>
      <point x="50" y="307" type="line"/>
      <point x="91" y="307" type="line"/>
      <point x="91" y="409" type="line"/>
      <point x="50" y="409" type="line"/>
    </contour>
    <contour>
      <point x="357" y="0" type="line"/>
      <point x="479" y="0" type="line"/>
      <point x="479" y="42" type="line"/>
      <point x="357" y="42" type="line"/>
    </contour>
    <contour>
      <point x="50" y="455" type="line"/>
      <point x="91" y="455" type="line"/>
      <point x="91" y="557" type="line"/>
      <point x="50" y="557" type="line"/>
    </contour>
    <contour>
      <point x="522" y="0" type="line"/>
      <point x="625" y="0" type="line"/>
      <point x="625" y="42" type="line"/>
      <point x="522" y="42" type="line"/>
    </contour>
    <contour>
      <point x="314" y="316" type="curve" smooth="yes"/>
      <point x="324" y="316"/>
      <point x="330" y="323"/>
      <point x="330" y="333" type="curve" smooth="yes"/>
      <point x="330" y="342"/>
      <point x="324" y="349"/>
      <point x="314" y="349" type="curve" smooth="yes"/>
      <point x="304" y="349"/>
      <point x="297" y="342"/>
      <point x="297" y="333" type="curve" smooth="yes"/>
      <point x="297" y="323"/>
      <point x="304" y="316"/>
    </contour>
    <contour>
      <point x="364" y="284" type="curve" smooth="yes"/>
      <point x="374" y="284"/>
      <point x="380" y="291"/>
      <point x="380" y="301" type="curve" smooth="yes"/>
      <point x="380" y="310"/>
      <point x="374" y="317"/>
      <point x="364" y="317" type="curve" smooth="yes"/>
      <point x="354" y="317"/>
      <point x="347" y="310"/>
      <point x="347" y="301" type="curve" smooth="yes"/>
      <point x="347" y="291"/>
      <point x="354" y="284"/>
    </contour>
    <contour>
      <point x="282" y="366" type="curve" smooth="yes"/>
      <point x="292" y="366"/>
      <point x="298" y="373"/>
      <point x="298" y="383" type="curve" smooth="yes"/>
      <point x="298" y="392"/>
      <point x="292" y="399"/>
      <point x="282" y="399" type="curve" smooth="yes"/>
      <point x="272" y="399"/>
      <point x="265" y="392"/>
      <point x="265" y="383" type="curve" smooth="yes"/>
      <point x="265" y="373"/>
      <point x="272" y="366"/>
    </contour>
    <contour>
      <point x="270" y="424" type="curve" smooth="yes"/>
      <point x="280" y="424"/>
      <point x="286" y="431"/>
      <point x="286" y="441" type="curve" smooth="yes"/>
      <point x="286" y="450"/>
      <point x="280" y="457"/>
      <point x="270" y="457" type="curve" smooth="yes"/>
      <point x="260" y="457"/>
      <point x="253" y="450"/>
      <point x="253" y="441" type="curve" smooth="yes"/>
      <point x="253" y="431"/>
      <point x="260" y="424"/>
    </contour>
    <contour>
      <point x="422" y="272" type="curve" smooth="yes"/>
      <point x="432" y="272"/>
      <point x="438" y="279"/>
      <point x="438" y="289" type="curve" smooth="yes"/>
      <point x="438" y="298"/>
      <point x="432" y="305"/>
      <point x="422" y="305" type="curve" smooth="yes"/>
      <point x="412" y="305"/>
      <point x="405" y="298"/>
      <point x="405" y="289" type="curve" smooth="yes"/>
      <point x="405" y="279"/>
      <point x="412" y="272"/>
    </contour>
    <contour>
      <point x="50" y="602" type="line"/>
      <point x="91" y="602" type="line"/>
      <point x="91" y="676" type="line"/>
      <point x="164" y="676" type="line"/>
      <point x="164" y="717" type="line"/>
      <point x="50" y="717" type="line"/>
    </contour>
    <contour>
      <point x="480" y="283" type="curve" smooth="yes"/>
      <point x="490" y="283"/>
      <point x="496" y="290"/>
      <point x="496" y="300" type="curve" smooth="yes"/>
      <point x="496" y="309"/>
      <point x="490" y="316"/>
      <point x="480" y="316" type="curve" smooth="yes"/>
      <point x="470" y="316"/>
      <point x="463" y="309"/>
      <point x="463" y="300" type="curve" smooth="yes"/>
      <point x="463" y="290"/>
      <point x="470" y="283"/>
    </contour>
    <contour>
      <point x="282" y="481" type="curve" smooth="yes"/>
      <point x="292" y="481"/>
      <point x="298" y="488"/>
      <point x="298" y="498" type="curve" smooth="yes"/>
      <point x="298" y="507"/>
      <point x="292" y="514"/>
      <point x="282" y="514" type="curve" smooth="yes"/>
      <point x="272" y="514"/>
      <point x="265" y="507"/>
      <point x="265" y="498" type="curve" smooth="yes"/>
      <point x="265" y="488"/>
      <point x="272" y="481"/>
    </contour>
    <contour>
      <point x="670" y="0" type="line"/>
      <point x="784" y="0" type="line"/>
      <point x="784" y="114" type="line"/>
      <point x="743" y="114" type="line"/>
      <point x="743" y="42" type="line"/>
      <point x="670" y="42" type="line"/>
    </contour>
    <contour>
      <point x="529" y="316" type="curve" smooth="yes"/>
      <point x="539" y="316"/>
      <point x="545" y="323"/>
      <point x="545" y="333" type="curve" smooth="yes"/>
      <point x="545" y="342"/>
      <point x="539" y="349"/>
      <point x="529" y="349" type="curve" smooth="yes"/>
      <point x="519" y="349"/>
      <point x="512" y="342"/>
      <point x="512" y="333" type="curve" smooth="yes"/>
      <point x="512" y="323"/>
      <point x="519" y="316"/>
    </contour>
    <contour>
      <point x="314" y="532" type="curve" smooth="yes"/>
      <point x="324" y="532"/>
      <point x="330" y="539"/>
      <point x="330" y="549" type="curve" smooth="yes"/>
      <point x="330" y="558"/>
      <point x="324" y="565"/>
      <point x="314" y="565" type="curve" smooth="yes"/>
      <point x="304" y="565"/>
      <point x="297" y="558"/>
      <point x="297" y="549" type="curve" smooth="yes"/>
      <point x="297" y="539"/>
      <point x="304" y="532"/>
    </contour>
    <contour>
      <point x="562" y="366" type="curve" smooth="yes"/>
      <point x="572" y="366"/>
      <point x="578" y="373"/>
      <point x="578" y="383" type="curve" smooth="yes"/>
      <point x="578" y="392"/>
      <point x="572" y="399"/>
      <point x="562" y="399" type="curve" smooth="yes"/>
      <point x="552" y="399"/>
      <point x="545" y="392"/>
      <point x="545" y="383" type="curve" smooth="yes"/>
      <point x="545" y="373"/>
      <point x="552" y="366"/>
    </contour>
    <contour>
      <point x="364" y="564" type="curve" smooth="yes"/>
      <point x="374" y="564"/>
      <point x="380" y="571"/>
      <point x="380" y="581" type="curve" smooth="yes"/>
      <point x="380" y="590"/>
      <point x="374" y="597"/>
      <point x="364" y="597" type="curve" smooth="yes"/>
      <point x="354" y="597"/>
      <point x="347" y="590"/>
      <point x="347" y="581" type="curve" smooth="yes"/>
      <point x="347" y="571"/>
      <point x="354" y="564"/>
    </contour>
    <contour>
      <point x="209" y="676" type="line"/>
      <point x="312" y="676" type="line"/>
      <point x="312" y="717" type="line"/>
      <point x="209" y="717" type="line"/>
    </contour>
    <contour>
      <point x="743" y="160" type="line"/>
      <point x="784" y="160" type="line"/>
      <point x="784" y="262" type="line"/>
      <point x="743" y="262" type="line"/>
    </contour>
    <contour>
      <point x="574" y="424" type="curve" smooth="yes"/>
      <point x="584" y="424"/>
      <point x="590" y="431"/>
      <point x="590" y="441" type="curve" smooth="yes"/>
      <point x="590" y="450"/>
      <point x="584" y="457"/>
      <point x="574" y="457" type="curve" smooth="yes"/>
      <point x="564" y="457"/>
      <point x="557" y="450"/>
      <point x="557" y="441" type="curve" smooth="yes"/>
      <point x="557" y="431"/>
      <point x="564" y="424"/>
    </contour>
    <contour>
      <point x="422" y="576" type="curve" smooth="yes"/>
      <point x="432" y="576"/>
      <point x="438" y="583"/>
      <point x="438" y="593" type="curve" smooth="yes"/>
      <point x="438" y="602"/>
      <point x="432" y="609"/>
      <point x="422" y="609" type="curve" smooth="yes"/>
      <point x="412" y="609"/>
      <point x="405" y="602"/>
      <point x="405" y="593" type="curve" smooth="yes"/>
      <point x="405" y="583"/>
      <point x="412" y="576"/>
    </contour>
    <contour>
      <point x="562" y="481" type="curve" smooth="yes"/>
      <point x="572" y="481"/>
      <point x="578" y="488"/>
      <point x="578" y="498" type="curve" smooth="yes"/>
      <point x="578" y="507"/>
      <point x="572" y="514"/>
      <point x="562" y="514" type="curve" smooth="yes"/>
      <point x="552" y="514"/>
      <point x="545" y="507"/>
      <point x="545" y="498" type="curve" smooth="yes"/>
      <point x="545" y="488"/>
      <point x="552" y="481"/>
    </contour>
    <contour>
      <point x="480" y="564" type="curve" smooth="yes"/>
      <point x="490" y="564"/>
      <point x="496" y="571"/>
      <point x="496" y="581" type="curve" smooth="yes"/>
      <point x="496" y="590"/>
      <point x="490" y="597"/>
      <point x="480" y="597" type="curve" smooth="yes"/>
      <point x="470" y="597"/>
      <point x="463" y="590"/>
      <point x="463" y="581" type="curve" smooth="yes"/>
      <point x="463" y="571"/>
      <point x="470" y="564"/>
    </contour>
    <contour>
      <point x="529" y="531" type="curve" smooth="yes"/>
      <point x="539" y="531"/>
      <point x="545" y="538"/>
      <point x="545" y="548" type="curve" smooth="yes"/>
      <point x="545" y="557"/>
      <point x="539" y="564"/>
      <point x="529" y="564" type="curve" smooth="yes"/>
      <point x="519" y="564"/>
      <point x="512" y="557"/>
      <point x="512" y="548" type="curve" smooth="yes"/>
      <point x="512" y="538"/>
      <point x="519" y="531"/>
    </contour>
    <contour>
      <point x="357" y="676" type="line"/>
      <point x="479" y="676" type="line"/>
      <point x="479" y="717" type="line"/>
      <point x="357" y="717" type="line"/>
    </contour>
    <contour>
      <point x="743" y="307" type="line"/>
      <point x="784" y="307" type="line"/>
      <point x="784" y="409" type="line"/>
      <point x="743" y="409" type="line"/>
    </contour>
    <contour>
      <point x="743" y="455" type="line"/>
      <point x="784" y="455" type="line"/>
      <point x="784" y="557" type="line"/>
      <point x="743" y="557" type="line"/>
    </contour>
    <contour>
      <point x="522" y="676" type="line"/>
      <point x="625" y="676" type="line"/>
      <point x="625" y="717" type="line"/>
      <point x="522" y="717" type="line"/>
    </contour>
    <contour>
      <point x="743" y="602" type="line"/>
      <point x="784" y="602" type="line"/>
      <point x="784" y="717" type="line"/>
      <point x="670" y="717" type="line"/>
      <point x="670" y="676" type="line"/>
      <point x="743" y="676" type="line"/>
    </contour>
  </outline>
</glyph>
<glyph name="u16F93" format="2">
  <advance width="300"/>
  <unicode hex="16F93"/>
  <outline>
    <contour>
      <point x="120" y="0" type="line"/>
      <point x="180" y="0" type="line"/>
      <point x="180" y="202" type="line"/>
      <point x="250" y="202" type="line"/>
      <point x="250" y="258" type="line"/>
      <point x="50" y="258" type="line"/>
      <point x="50" y="202" type="line"/>
      <point x="120" y="202" type="line"/>
    </contour>
  </outline>
</glyph>
<glyph name="u16F94" format="2">
  <advance width="312"/>
  <unicode hex="16F94"/>
  <outline>
    <contour>
      <point x="159" y="-10" type="curve" smooth="yes"/>
      <point x="230" y="-10"/>
      <point x="262" y="37"/>
      <point x="262" y="78" type="curve" smooth="yes"/>
      <point x="262" y="108"/>
      <point x="241" y="143"/>
      <point x="191" y="153" type="curve"/>
      <point x="242" y="202" type="line"/>
      <point x="242" y="258" type="line"/>
      <point x="61" y="258" type="line"/>
      <point x="61" y="202" type="line"/>
      <point x="176" y="202" type="line"/>
      <point x="108" y="139" type="line"/>
      <point x="108" y="114" type="line"/>
      <point x="149" y="114" type="line" smooth="yes"/>
      <point x="186" y="114"/>
      <point x="208" y="108"/>
      <point x="208" y="77" type="curve" smooth="yes"/>
      <point x="208" y="53"/>
      <point x="176" y="42"/>
      <point x="158" y="42" type="curve" smooth="yes"/>
      <point x="132" y="42"/>
      <point x="106" y="49"/>
      <point x="94" y="73" type="curve"/>
      <point x="50" y="46" type="line"/>
      <point x="77" y="1"/>
      <point x="121" y="-10"/>
    </contour>
  </outline>
</glyph>
<glyph name="u16F95" format="2">
  <advance width="338"/>
  <unicode hex="16F95"/>
  <outline>
    <contour>
      <point x="50" y="0" type="line"/>
      <point x="108" y="0" type="line"/>
      <point x="108" y="174" type="line"/>
      <point x="149" y="126" type="line"/>
      <point x="189" y="126" type="line"/>
      <point x="230" y="174" type="line"/>
      <point x="230" y="0" type="line"/>
      <point x="288" y="0" type="line"/>
      <point x="288" y="258" type="line"/>
      <point x="238" y="258" type="line"/>
      <point x="169" y="172" type="line"/>
      <point x="100" y="258" type="line"/>
      <point x="50" y="258" type="line"/>
    </contour>
  </outline>
</glyph>
<glyph name="u16F96" format="2">
  <advance width="270"/>
  <unicode hex="16F96"/>
  <outline>
    <contour>
      <point x="50" y="0" type="line"/>
      <point x="110" y="0" type="line"/>
      <point x="110" y="202" type="line"/>
      <point x="220" y="202" type="line"/>
      <point x="220" y="258" type="line"/>
      <point x="50" y="258" type="line"/>
    </contour>
  </outline>
</glyph>
<glyph name="u16F97" format="2">
  <advance width="319"/>
  <unicode hex="16F97"/>
  <outline>
    <contour>
      <point x="164" y="-10" type="curve" smooth="yes"/>
      <point x="235" y="-10"/>
      <point x="267" y="28"/>
      <point x="267" y="69" type="curve" smooth="yes"/>
      <point x="267" y="126"/>
      <point x="221" y="140"/>
      <point x="179" y="150" type="curve" smooth="yes"/>
      <point x="144" y="158"/>
      <point x="111" y="164"/>
      <point x="111" y="189" type="curve" smooth="yes"/>
      <point x="111" y="213"/>
      <point x="143" y="216"/>
      <point x="161" y="216" type="curve" smooth="yes"/>
      <point x="187" y="216"/>
      <point x="213" y="209"/>
      <point x="225" y="185" type="curve"/>
      <point x="269" y="212" type="line"/>
      <point x="242" y="257"/>
      <point x="198" y="268"/>
      <point x="160" y="268" type="curve" smooth="yes"/>
      <point x="89" y="268"/>
      <point x="57" y="230"/>
      <point x="57" y="189" type="curve" smooth="yes"/>
      <point x="57" y="129"/>
      <point x="108" y="115"/>
      <point x="150" y="106" type="curve" smooth="yes"/>
      <point x="183" y="99"/>
      <point x="213" y="93"/>
      <point x="213" y="69" type="curve" smooth="yes"/>
      <point x="213" y="45"/>
      <point x="181" y="42"/>
      <point x="163" y="42" type="curve" smooth="yes"/>
      <point x="137" y="42"/>
      <point x="106" y="49"/>
      <point x="94" y="73" type="curve"/>
      <point x="50" y="46" type="line"/>
      <point x="77" y="1"/>
      <point x="126" y="-10"/>
    </contour>
  </outline>
</glyph>
<glyph name="u16F98" format="2">
  <advance width="270"/>
  <unicode hex="16F98"/>
  <outline>
    <contour>
      <point x="50" y="0" type="line"/>
      <point x="220" y="0" type="line"/>
      <point x="220" y="56" type="line"/>
      <point x="110" y="56" type="line"/>
      <point x="110" y="258" type="line"/>
      <point x="50" y="258" type="line"/>
    </contour>
  </outline>
</glyph>
<glyph name="u16F99" format="2">
  <advance width="310"/>
  <unicode hex="16F99"/>
  <outline>
    <contour>
      <point x="182" y="-10" type="curve" smooth="yes"/>
      <point x="214" y="-10"/>
      <point x="239" y="1"/>
      <point x="260" y="18" type="curve"/>
      <point x="222" y="62" type="line"/>
      <point x="212" y="54"/>
      <point x="203" y="50"/>
      <point x="187" y="50" type="curve" smooth="yes"/>
      <point x="161" y="50"/>
      <point x="157" y="65"/>
      <point x="157" y="92" type="curve" smooth="yes"/>
      <point x="157" y="130" type="line"/>
      <point x="205" y="130" type="line"/>
      <point x="205" y="186" type="line"/>
      <point x="157" y="186" type="line"/>
      <point x="157" y="258" type="line"/>
      <point x="97" y="258" type="line"/>
      <point x="97" y="186" type="line"/>
      <point x="50" y="186" type="line"/>
      <point x="50" y="130" type="line"/>
      <point x="97" y="130" type="line"/>
      <point x="97" y="92" type="line" smooth="yes"/>
      <point x="97" y="30"/>
      <point x="114" y="-10"/>
    </contour>
  </outline>
</glyph>
<glyph name="u16F9A" format="2">
  <advance width="514"/>
  <unicode hex="16F9A"/>
  <outline>
    <contour>
      <point x="347" y="-10" type="curve" smooth="yes"/>
      <point x="419" y="-10"/>
      <point x="464" y="22"/>
      <point x="464" y="131" type="curve" smooth="yes"/>
      <point x="464" y="158"/>
      <point x="460" y="182"/>
      <point x="454" y="208" type="curve"/>
      <point x="394" y="208" type="line"/>
      <point x="401" y="180"/>
      <point x="404" y="151"/>
      <point x="404" y="123" type="curve" smooth="yes"/>
      <point x="404" y="74"/>
      <point x="386" y="50"/>
      <point x="347" y="50" type="curve" smooth="yes"/>
      <point x="304" y="50"/>
      <point x="287" y="74"/>
      <point x="287" y="122" type="curve" smooth="yes"/>
      <point x="287" y="145" type="line" smooth="yes"/>
      <point x="287" y="242"/>
      <point x="231" y="268"/>
      <point x="167" y="268" type="curve" smooth="yes"/>
      <point x="95" y="268"/>
      <point x="50" y="236"/>
      <point x="50" y="127" type="curve" smooth="yes"/>
      <point x="50" y="100"/>
      <point x="54" y="76"/>
      <point x="60" y="50" type="curve"/>
      <point x="120" y="50" type="line"/>
      <point x="113" y="78"/>
      <point x="110" y="107"/>
      <point x="110" y="135" type="curve" smooth="yes"/>
      <point x="110" y="184"/>
      <point x="128" y="208"/>
      <point x="167" y="208" type="curve" smooth="yes"/>
      <point x="210" y="208"/>
      <point x="227" y="184"/>
      <point x="227" y="145" type="curve" smooth="yes"/>
      <point x="227" y="121" type="line" smooth="yes"/>
      <point x="227" y="20"/>
      <point x="279" y="-10"/>
    </contour>
  </outline>
</glyph>
<glyph name="u16F9B" format="2">
  <advance width="518"/>
  <unicode hex="16F9B"/>
  <outline>
    <contour>
      <point x="72" y="0" type="curve"/>
      <point x="132" y="0" type="line"/>
      <point x="125" y="28"/>
      <point x="112" y="107"/>
      <point x="112" y="135" type="curve" smooth="yes"/>
      <point x="112" y="184"/>
      <point x="130" y="208"/>
      <point x="169" y="208" type="curve" smooth="yes"/>
      <point x="212" y="208"/>
      <point x="229" y="184"/>
      <point x="229" y="136" type="curve" smooth="yes"/>
      <point x="229" y="0" type="line"/>
      <point x="289" y="0" type="line"/>
      <point x="289" y="135" type="line" smooth="yes"/>
      <point x="289" y="184"/>
      <point x="306" y="208"/>
      <point x="349" y="208" type="curve" smooth="yes"/>
      <point x="388" y="208"/>
      <point x="406" y="184"/>
      <point x="406" y="135" type="curve" smooth="yes"/>
      <point x="406" y="107"/>
      <point x="393" y="28"/>
      <point x="386" y="0" type="curve"/>
      <point x="446" y="0" type="line"/>
      <point x="452" y="26"/>
      <point x="468" y="101"/>
      <point x="468" y="136" type="curve" smooth="yes"/>
      <point x="468" y="237"/>
      <point x="421" y="268"/>
      <point x="354" y="268" type="curve" smooth="yes"/>
      <point x="325" y="268"/>
      <point x="287" y="258"/>
      <point x="260" y="227" type="curve"/>
      <point x="234" y="258"/>
      <point x="196" y="268"/>
      <point x="165" y="268" type="curve" smooth="yes"/>
      <point x="97" y="268"/>
      <point x="50" y="237"/>
      <point x="50" y="136" type="curve" smooth="yes"/>
      <point x="50" y="101"/>
      <point x="66" y="26"/>
    </contour>
  </outline>
</glyph>
<glyph name="u16F9C" format="2">
  <advance width="344"/>
  <unicode hex="16F9C"/>
  <outline>
    <contour>
      <point x="170" y="-10" type="curve" smooth="yes"/>
      <point x="230" y="-10"/>
      <point x="267" y="28"/>
      <point x="267" y="93" type="curve" smooth="yes"/>
      <point x="267" y="116"/>
      <point x="261" y="141"/>
      <point x="252" y="164" type="curve"/>
      <point x="294" y="164" type="line"/>
      <point x="294" y="220" type="line"/>
      <point x="234" y="220" type="line" smooth="yes"/>
      <point x="229" y="220"/>
      <point x="227" y="220"/>
      <point x="220" y="219" type="curve"/>
      <point x="181" y="270"/>
      <point x="123" y="307"/>
      <point x="65" y="311" type="curve"/>
      <point x="50" y="262" type="line"/>
      <point x="97" y="254"/>
      <point x="132" y="232"/>
      <point x="156" y="207" type="curve"/>
      <point x="109" y="188"/>
      <point x="77" y="150"/>
      <point x="77" y="91" type="curve" smooth="yes"/>
      <point x="77" y="33"/>
      <point x="114" y="-10"/>
    </contour>
    <contour>
      <point x="171" y="42" type="curve" smooth="yes"/>
      <point x="153" y="42"/>
      <point x="133" y="53"/>
      <point x="133" y="91" type="curve" smooth="yes"/>
      <point x="133" y="112"/>
      <point x="141" y="145"/>
      <point x="191" y="158" type="curve"/>
      <point x="206" y="129"/>
      <point x="211" y="102"/>
      <point x="211" y="91" type="curve" smooth="yes"/>
      <point x="211" y="56"/>
      <point x="195" y="42"/>
    </contour>
  </outline>
</glyph>
<glyph name="u16F9D" format="2">
  <advance width="332"/>
  <unicode hex="16F9D"/>
  <outline>
    <contour>
      <point x="190" y="-10" type="curve"/>
      <point x="195" y="41" type="line"/>
      <point x="160" y="41"/>
      <point x="128" y="64"/>
      <point x="119" y="96" type="curve"/>
      <point x="134" y="91"/>
      <point x="151" y="89"/>
      <point x="170" y="89" type="curve" smooth="yes"/>
      <point x="243" y="89"/>
      <point x="282" y="129"/>
      <point x="282" y="180" type="curve" smooth="yes"/>
      <point x="282" y="232"/>
      <point x="241" y="268"/>
      <point x="168" y="268" type="curve" smooth="yes"/>
      <point x="95" y="268"/>
      <point x="50" y="230"/>
      <point x="50" y="153" type="curve" smooth="yes"/>
      <point x="50" y="52"/>
      <point x="108" y="-8"/>
    </contour>
    <contour>
      <point x="168" y="141" type="curve" smooth="yes"/>
      <point x="129" y="141"/>
      <point x="109" y="156"/>
      <point x="109" y="178" type="curve" smooth="yes"/>
      <point x="109" y="202"/>
      <point x="129" y="216"/>
      <point x="168" y="216" type="curve" smooth="yes"/>
      <point x="205" y="216"/>
      <point x="226" y="201"/>
      <point x="226" y="178" type="curve" smooth="yes"/>
      <point x="226" y="156"/>
      <point x="205" y="141"/>
    </contour>
  </outline>
</glyph>
<glyph name="u16F9E" format="2">
  <advance width="344"/>
  <unicode hex="16F9E"/>
  <outline>
    <contour>
      <point x="279" y="-10" type="curve"/>
      <point x="294" y="39" type="line"/>
      <point x="246" y="47"/>
      <point x="212" y="68"/>
      <point x="187" y="94" type="curve"/>
      <point x="234" y="112"/>
      <point x="267" y="151"/>
      <point x="267" y="210" type="curve" smooth="yes"/>
      <point x="267" y="268"/>
      <point x="230" y="311"/>
      <point x="174" y="311" type="curve" smooth="yes"/>
      <point x="114" y="311"/>
      <point x="77" y="273"/>
      <point x="77" y="208" type="curve" smooth="yes"/>
      <point x="77" y="184"/>
      <point x="82" y="160"/>
      <point x="92" y="137" type="curve"/>
      <point x="50" y="137" type="line"/>
      <point x="50" y="81" type="line"/>
      <point x="124" y="81" type="line"/>
      <point x="162" y="31"/>
      <point x="220" y="-6"/>
    </contour>
    <contour>
      <point x="153" y="142" type="curve"/>
      <point x="138" y="171"/>
      <point x="133" y="198"/>
      <point x="133" y="210" type="curve" smooth="yes"/>
      <point x="133" y="245"/>
      <point x="149" y="259"/>
      <point x="173" y="259" type="curve" smooth="yes"/>
      <point x="191" y="259"/>
      <point x="211" y="248"/>
      <point x="211" y="210" type="curve" smooth="yes"/>
      <point x="211" y="188"/>
      <point x="202" y="155"/>
    </contour>
  </outline>
</glyph>
<glyph name="u16F9F" format="2">
  <advance width="518"/>
  <unicode hex="16F9F"/>
  <outline>
    <contour>
      <point x="165" y="-10" type="curve" smooth="yes"/>
      <point x="196" y="-10"/>
      <point x="234" y="0"/>
      <point x="260" y="31" type="curve"/>
      <point x="287" y="0"/>
      <point x="325" y="-10"/>
      <point x="354" y="-10" type="curve" smooth="yes"/>
      <point x="421" y="-10"/>
      <point x="468" y="21"/>
      <point x="468" y="122" type="curve" smooth="yes"/>
      <point x="468" y="157"/>
      <point x="452" y="232"/>
      <point x="446" y="258" type="curve"/>
      <point x="386" y="258" type="line"/>
      <point x="393" y="230"/>
      <point x="406" y="151"/>
      <point x="406" y="123" type="curve" smooth="yes"/>
      <point x="406" y="74"/>
      <point x="388" y="50"/>
      <point x="349" y="50" type="curve" smooth="yes"/>
      <point x="306" y="50"/>
      <point x="289" y="74"/>
      <point x="289" y="123" type="curve" smooth="yes"/>
      <point x="289" y="258" type="line"/>
      <point x="229" y="258" type="line"/>
      <point x="229" y="122" type="line" smooth="yes"/>
      <point x="229" y="74"/>
      <point x="212" y="50"/>
      <point x="169" y="50" type="curve" smooth="yes"/>
      <point x="130" y="50"/>
      <point x="112" y="74"/>
      <point x="112" y="123" type="curve" smooth="yes"/>
      <point x="112" y="151"/>
      <point x="125" y="230"/>
      <point x="132" y="258" type="curve"/>
      <point x="72" y="258" type="line"/>
      <point x="66" y="232"/>
      <point x="50" y="157"/>
      <point x="50" y="122" type="curve" smooth="yes"/>
      <point x="50" y="21"/>
      <point x="97" y="-10"/>
    </contour>
  </outline>
</glyph>
<glyph name="ring.23" format="2">
  <advance width="358"/>
  <outline>
    <contour>
      <point x="179" y="226" type="curve" smooth="yes"/>
      <point x="215" y="226"/>
      <point x="249" y="240"/>
      <point x="274" y="263" type="curve"/>
      <point x="231" y="309" type="line"/>
      <point x="218" y="296"/>
      <point x="199" y="290"/>
      <point x="179" y="290" type="curve" smooth="yes"/>
      <point x="139" y="290"/>
      <point x="108" y="320"/>
      <point x="108" y="361" type="curve" smooth="yes"/>
      <point x="108" y="404"/>
      <point x="139" y="433"/>
      <point x="179" y="433" type="curve"/>
      <point x="179" y="497" type="line"/>
      <point x="104" y="497"/>
      <point x="40" y="437"/>
      <point x="40" y="361" type="curve" smooth="yes"/>
      <point x="40" y="286"/>
      <point x="104" y="226"/>
    </contour>
  </outline>
</glyph>
<glyph name="ring.full" format="2">
  <advance width="358"/>
  <outline>
    <contour>
      <point x="179" y="226" type="curve" smooth="yes"/>
      <point x="254" y="226"/>
      <point x="318" y="286"/>
      <point x="318" y="361" type="curve" smooth="yes"/>
      <point x="318" y="437"/>
      <point x="254" y="497"/>
      <point x="179" y="497" type="curve" smooth="yes"/>
      <point x="104" y="497"/>
      <point x="40" y="437"/>
      <point x="40" y="361" type="curve" smooth="yes"/>
      <point x="40" y="286"/>
      <point x="104" y="226"/>
    </contour>
    <contour>
      <point x="179" y="290" type="curve" smooth="yes"/>
      <point x="139" y="290"/>
      <point x="108" y="320"/>
      <point x="108" y="361" type="curve" smooth="yes"/>
      <point x="108" y="404"/>
      <point x="139" y="433"/>
      <point x="179" y="433" type="curve" smooth="yes"/>
      <point x="220" y="433"/>
      <point x="250" y="405"/>
      <point x="250" y="361" type="curve" smooth="yes"/>
      <point x="250" y="320"/>
      <point x="220" y="290"/>
    </contour>
  </outline>
</glyph>
<glyph name="ring.half" format="2">
  <advance width="358"/>
  <outline>
    <contour>
      <point x="179" y="226" type="curve"/>
      <point x="179" y="290" type="line"/>
      <point x="139" y="290"/>
      <point x="108" y="320"/>
      <point x="108" y="361" type="curve" smooth="yes"/>
      <point x="108" y="404"/>
      <point x="139" y="433"/>
      <point x="179" y="433" type="curve"/>
      <point x="179" y="497" type="line"/>
      <point x="104" y="497"/>
      <point x="40" y="437"/>
      <point x="40" y="361" type="curve" smooth="yes"/>
      <point x="40" y="286"/>
      <point x="104" y="226"/>
    </contour>
  </outline>
</glyph>
<glyph name="ring.l34" format="2">
  <advance width="358"/>
  <outline>
    <contour>
      <point x="179" y="226" type="curve" smooth="yes"/>
      <point x="200" y="226"/>
      <point x="218" y="231"/>
      <point x="236" y="239" type="curve"/>
      <point x="236" y="315" type="line"/>
      <point x="223" y="299"/>
      <point x="202" y="290"/>
      <point x="179" y="290" type="curve" smooth="yes"/>
      <point x="139" y="290"/>
      <point x="108" y="320"/>
      <point x="108" y="361" type="curve" smooth="yes"/>
      <point x="108" y="404"/>
      <point x="139" y="433"/>
      <point x="179" y="433" type="curve" smooth="yes"/>
      <point x="204" y="433"/>
      <point x="221" y="426"/>
      <point x="236" y="410" type="curve"/>
      <point x="236" y="485" type="line"/>
      <point x="217" y="494"/>
      <point x="201" y="497"/>
      <point x="179" y="497" type="curve" smooth="yes"/>
      <point x="104" y="497"/>
      <point x="40" y="437"/>
      <point x="40" y="361" type="curve" smooth="yes"/>
      <point x="40" y="286"/>
      <point x="104" y="226"/>
    </contour>
  </outline>
</glyph>
<glyph name="ring.r34" format="2">
  <advance width="358"/>
  <outline>
    <contour>
      <point x="179" y="226" type="curve" smooth="yes"/>
      <point x="254" y="226"/>
      <point x="318" y="286"/>
      <point x="318" y="361" type="curve" smooth="yes"/>
      <point x="318" y="437"/>
      <point x="254" y="497"/>
      <point x="179" y="497" type="curve" smooth="yes"/>
      <point x="157" y="497"/>
      <point x="141" y="494"/>
      <point x="122" y="485" type="curve"/>
      <point x="122" y="410" type="line"/>
      <point x="137" y="424"/>
      <point x="154" y="433"/>
      <point x="179" y="433" type="curve" smooth="yes"/>
      <point x="219" y="433"/>
      <point x="250" y="404"/>
      <point x="250" y="361" type="curve" smooth="yes"/>
      <point x="250" y="320"/>
      <point x="220" y="290"/>
      <point x="180" y="290" type="curve" smooth="yes"/>
      <point x="157" y="290"/>
      <point x="135" y="299"/>
      <point x="122" y="315" type="curve"/>
      <point x="122" y="239" type="line"/>
      <point x="140" y="231"/>
      <point x="158" y="226"/>
    </contour>
  </outline>
</glyph>
<glyph name="u16F7F.blw" format="2">
  <outline>
    <contour>
      <point x="-141" y="-423" type="line"/>
      <point x="-77" y="-423" type="line"/>
      <point x="-77" y="-311" type="line"/>
      <point x="-11" y="-311" type="line" smooth="yes"/>
      <point x="103" y="-311"/>
      <point x="141" y="-269"/>
      <point x="141" y="-197" type="curve" smooth="yes"/>
      <point x="141" y="-129"/>
      <point x="104" y="-82"/>
      <point x="-11" y="-82" type="curve" smooth="yes"/>
      <point x="-141" y="-82" type="line"/>
      <point x="-141" y="-142" type="line"/>
      <point x="1" y="-142" type="line" smooth="yes"/>
      <point x="49" y="-142"/>
      <point x="73" y="-154"/>
      <point x="73" y="-197" type="curve" smooth="yes"/>
      <point x="73" y="-236"/>
      <point x="49" y="-251"/>
      <point x="-1" y="-251" type="curve" smooth="yes"/>
      <point x="-141" y="-251" type="line"/>
    </contour>
    <contour>
      <point x="-141" y="-112" type="line"/>
      <point x="-141" y="-310" type="line"/>
      <point x="-77" y="-310" type="line"/>
      <point x="-77" y="-112" type="line"/>
    </contour>
  </outline>
</glyph>
<glyph name="u16F7F.cnt" format="2">
  <advance width="331"/>
  <outline>
    <contour>
      <point x="0" y="200" type="line"/>
      <point x="64" y="200" type="line"/>
      <point x="64" y="312" type="line"/>
      <point x="130" y="312" type="line" smooth="yes"/>
      <point x="243" y="312"/>
      <point x="281" y="354"/>
      <point x="281" y="426" type="curve" smooth="yes"/>
      <point x="281" y="494"/>
      <point x="244" y="541"/>
      <point x="130" y="541" type="curve" smooth="yes"/>
      <point x="0" y="541" type="line"/>
      <point x="0" y="481" type="line"/>
      <point x="141" y="481" type="line" smooth="yes"/>
      <point x="189" y="481"/>
      <point x="213" y="469"/>
      <point x="213" y="426" type="curve" smooth="yes"/>
      <point x="213" y="387"/>
      <point x="189" y="372"/>
      <point x="140" y="372" type="curve" smooth="yes"/>
      <point x="0" y="372" type="line"/>
    </contour>
    <contour>
      <point x="0" y="511" type="line"/>
      <point x="0" y="313" type="line"/>
      <point x="64" y="313" type="line"/>
      <point x="64" y="511" type="line"/>
    </contour>
  </outline>
</glyph>
<glyph name="u16F7F.rht" format="2">
  <advance width="331"/>
  <outline>
    <contour>
      <point x="0" y="446" type="line"/>
      <point x="64" y="446" type="line"/>
      <point x="64" y="558" type="line"/>
      <point x="130" y="558" type="line" smooth="yes"/>
      <point x="243" y="558"/>
      <point x="281" y="600"/>
      <point x="281" y="672" type="curve" smooth="yes"/>
      <point x="281" y="740"/>
      <point x="244" y="787"/>
      <point x="130" y="787" type="curve" smooth="yes"/>
      <point x="0" y="787" type="line"/>
      <point x="0" y="727" type="line"/>
      <point x="141" y="727" type="line" smooth="yes"/>
      <point x="189" y="727"/>
      <point x="213" y="715"/>
      <point x="213" y="672" type="curve" smooth="yes"/>
      <point x="213" y="633"/>
      <point x="189" y="618"/>
      <point x="140" y="618" type="curve" smooth="yes"/>
      <point x="0" y="618" type="line"/>
    </contour>
    <contour>
      <point x="0" y="757" type="line"/>
      <point x="0" y="559" type="line"/>
      <point x="64" y="559" type="line"/>
      <point x="64" y="757" type="line"/>
    </contour>
  </outline>
</glyph>
<glyph name="u16F80.blw" format="2">
  <outline>
    <contour>
      <point x="1" y="-433" type="curve" smooth="yes"/>
      <point x="73" y="-433"/>
      <point x="129" y="-401"/>
      <point x="129" y="-292" type="curve" smooth="yes"/>
      <point x="129" y="-165" type="line"/>
      <point x="65" y="-165" type="line"/>
      <point x="65" y="-296" type="line" smooth="yes"/>
      <point x="65" y="-345"/>
      <point x="40" y="-369"/>
      <point x="1" y="-369" type="curve" smooth="yes"/>
      <point x="-43" y="-369"/>
      <point x="-65" y="-345"/>
      <point x="-65" y="-297" type="curve" smooth="yes"/>
      <point x="-65" y="-165" type="line"/>
      <point x="-129" y="-165" type="line"/>
      <point x="-129" y="-292" type="line" smooth="yes"/>
      <point x="-129" y="-406"/>
      <point x="-68" y="-433"/>
    </contour>
    <contour>
      <point x="-129" y="-82" type="line"/>
      <point x="-129" y="-130" type="line"/>
      <point x="-65" y="-130" type="line"/>
      <point x="-65" y="-82" type="line"/>
    </contour>
    <contour>
      <point x="65" y="-82" type="line"/>
      <point x="65" y="-130" type="line"/>
      <point x="129" y="-130" type="line"/>
      <point x="129" y="-82" type="line"/>
    </contour>
  </outline>
</glyph>
<glyph name="u16F80.cnt" format="2">
  <advance width="307"/>
  <outline>
    <contour>
      <point x="129" y="190" type="curve" smooth="yes"/>
      <point x="201" y="190"/>
      <point x="257" y="222"/>
      <point x="257" y="331" type="curve" smooth="yes"/>
      <point x="257" y="458" type="line"/>
      <point x="193" y="458" type="line"/>
      <point x="193" y="327" type="line" smooth="yes"/>
      <point x="193" y="278"/>
      <point x="168" y="254"/>
      <point x="129" y="254" type="curve" smooth="yes"/>
      <point x="86" y="254"/>
      <point x="64" y="278"/>
      <point x="64" y="326" type="curve" smooth="yes"/>
      <point x="64" y="458" type="line"/>
      <point x="0" y="458" type="line"/>
      <point x="0" y="331" type="line" smooth="yes"/>
      <point x="0" y="217"/>
      <point x="61" y="190"/>
    </contour>
    <contour>
      <point x="0" y="541" type="line"/>
      <point x="0" y="493" type="line"/>
      <point x="64" y="493" type="line"/>
      <point x="64" y="541" type="line"/>
    </contour>
    <contour>
      <point x="193" y="541" type="line"/>
      <point x="193" y="493" type="line"/>
      <point x="257" y="493" type="line"/>
      <point x="257" y="541" type="line"/>
    </contour>
  </outline>
</glyph>
<glyph name="u16F80.rht" format="2">
  <advance width="307"/>
  <outline>
    <contour>
      <point x="129" y="446" type="curve" smooth="yes"/>
      <point x="201" y="446"/>
      <point x="257" y="478"/>
      <point x="257" y="587" type="curve" smooth="yes"/>
      <point x="257" y="714" type="line"/>
      <point x="193" y="714" type="line"/>
      <point x="193" y="583" type="line" smooth="yes"/>
      <point x="193" y="534"/>
      <point x="168" y="510"/>
      <point x="129" y="510" type="curve" smooth="yes"/>
      <point x="86" y="510"/>
      <point x="64" y="534"/>
      <point x="64" y="582" type="curve" smooth="yes"/>
      <point x="64" y="714" type="line"/>
      <point x="0" y="714" type="line"/>
      <point x="0" y="587" type="line" smooth="yes"/>
      <point x="0" y="473"/>
      <point x="61" y="446"/>
    </contour>
    <contour>
      <point x="0" y="797" type="line"/>
      <point x="0" y="749" type="line"/>
      <point x="64" y="749" type="line"/>
      <point x="64" y="797" type="line"/>
    </contour>
    <contour>
      <point x="193" y="797" type="line"/>
      <point x="193" y="749" type="line"/>
      <point x="257" y="749" type="line"/>
      <point x="257" y="797" type="line"/>
    </contour>
  </outline>
</glyph>
<glyph name="u16F81.abv" format="2">
  <outline>
    <contour>
      <point x="138" y="851" type="curve"/>
      <point x="93" y="898" type="line"/>
      <point x="74" y="873"/>
      <point x="39" y="853"/>
      <point x="1" y="853" type="curve" smooth="yes"/>
      <point x="-40" y="853"/>
      <point x="-70" y="883"/>
      <point x="-70" y="924" type="curve" smooth="yes"/>
      <point x="-70" y="974"/>
      <point x="-40" y="1029"/>
      <point x="4" y="1029" type="curve" smooth="yes"/>
      <point x="24" y="1029"/>
      <point x="35" y="1017"/>
      <point x="35" y="1001" type="curve" smooth="yes"/>
      <point x="35" y="987"/>
      <point x="27" y="969"/>
      <point x="10" y="955" type="curve"/>
      <point x="57" y="910" type="line"/>
      <point x="94" y="937"/>
      <point x="112" y="972"/>
      <point x="112" y="1003" type="curve" smooth="yes"/>
      <point x="112" y="1049"/>
      <point x="74" y="1088"/>
      <point x="13" y="1088" type="curve" smooth="yes"/>
      <point x="-72" y="1088"/>
      <point x="-138" y="1014"/>
      <point x="-138" y="919" type="curve" smooth="yes"/>
      <point x="-138" y="841"/>
      <point x="-75" y="789"/>
      <point x="1" y="789" type="curve" smooth="yes"/>
      <point x="67" y="789"/>
      <point x="113" y="818"/>
    </contour>
  </outline>
</glyph>
<glyph name="u16F81.blw" format="2">
  <outline>
    <contour>
      <point x="138" y="-309" type="curve"/>
      <point x="93" y="-262" type="line"/>
      <point x="74" y="-287"/>
      <point x="39" y="-307"/>
      <point x="1" y="-307" type="curve" smooth="yes"/>
      <point x="-40" y="-307"/>
      <point x="-70" y="-277"/>
      <point x="-70" y="-236" type="curve" smooth="yes"/>
      <point x="-70" y="-186"/>
      <point x="-40" y="-131"/>
      <point x="4" y="-131" type="curve" smooth="yes"/>
      <point x="24" y="-131"/>
      <point x="35" y="-143"/>
      <point x="35" y="-159" type="curve" smooth="yes"/>
      <point x="35" y="-173"/>
      <point x="27" y="-191"/>
      <point x="10" y="-205" type="curve"/>
      <point x="57" y="-250" type="line"/>
      <point x="94" y="-223"/>
      <point x="112" y="-188"/>
      <point x="112" y="-157" type="curve" smooth="yes"/>
      <point x="112" y="-111"/>
      <point x="74" y="-72"/>
      <point x="13" y="-72" type="curve" smooth="yes"/>
      <point x="-72" y="-72"/>
      <point x="-138" y="-146"/>
      <point x="-138" y="-241" type="curve" smooth="yes"/>
      <point x="-138" y="-319"/>
      <point x="-75" y="-371"/>
      <point x="1" y="-371" type="curve" smooth="yes"/>
      <point x="67" y="-371"/>
      <point x="113" y="-342"/>
    </contour>
  </outline>
</glyph>
<glyph name="u16F81.cnt" format="2">
  <advance width="325"/>
  <outline>
    <contour>
      <point x="275" y="252" type="curve"/>
      <point x="230" y="299" type="line"/>
      <point x="211" y="274"/>
      <point x="176" y="254"/>
      <point x="138" y="254" type="curve" smooth="yes"/>
      <point x="98" y="254"/>
      <point x="68" y="284"/>
      <point x="68" y="325" type="curve" smooth="yes"/>
      <point x="68" y="375"/>
      <point x="98" y="430"/>
      <point x="141" y="430" type="curve" smooth="yes"/>
      <point x="161" y="430"/>
      <point x="172" y="418"/>
      <point x="172" y="402" type="curve" smooth="yes"/>
      <point x="172" y="388"/>
      <point x="164" y="370"/>
      <point x="147" y="356" type="curve"/>
      <point x="194" y="311" type="line"/>
      <point x="231" y="338"/>
      <point x="249" y="373"/>
      <point x="249" y="404" type="curve" smooth="yes"/>
      <point x="249" y="450"/>
      <point x="211" y="489"/>
      <point x="150" y="489" type="curve" smooth="yes"/>
      <point x="66" y="489"/>
      <point x="0" y="415"/>
      <point x="0" y="320" type="curve" smooth="yes"/>
      <point x="0" y="242"/>
      <point x="63" y="190"/>
      <point x="138" y="190" type="curve" smooth="yes"/>
      <point x="204" y="190"/>
      <point x="250" y="219"/>
    </contour>
  </outline>
</glyph>
<glyph name="u16F81.rht" format="2">
  <advance width="325"/>
  <outline>
    <contour>
      <point x="275" y="508" type="curve"/>
      <point x="230" y="555" type="line"/>
      <point x="211" y="530"/>
      <point x="176" y="510"/>
      <point x="138" y="510" type="curve" smooth="yes"/>
      <point x="98" y="510"/>
      <point x="68" y="540"/>
      <point x="68" y="581" type="curve" smooth="yes"/>
      <point x="68" y="631"/>
      <point x="98" y="686"/>
      <point x="141" y="686" type="curve" smooth="yes"/>
      <point x="161" y="686"/>
      <point x="172" y="674"/>
      <point x="172" y="658" type="curve" smooth="yes"/>
      <point x="172" y="644"/>
      <point x="164" y="626"/>
      <point x="147" y="612" type="curve"/>
      <point x="194" y="567" type="line"/>
      <point x="231" y="594"/>
      <point x="249" y="629"/>
      <point x="249" y="660" type="curve" smooth="yes"/>
      <point x="249" y="706"/>
      <point x="211" y="745"/>
      <point x="150" y="745" type="curve" smooth="yes"/>
      <point x="66" y="745"/>
      <point x="0" y="671"/>
      <point x="0" y="576" type="curve" smooth="yes"/>
      <point x="0" y="498"/>
      <point x="63" y="446"/>
      <point x="138" y="446" type="curve" smooth="yes"/>
      <point x="204" y="446"/>
      <point x="250" y="475"/>
    </contour>
  </outline>
</glyph>
<glyph name="u16F83.abv" format="2">
  <outline>
    <contour>
      <point x="-42" y="800" type="line"/>
      <point x="43" y="800" type="line"/>
      <point x="174" y="1058" type="line"/>
      <point x="97" y="1058" type="line"/>
      <point x="-20" y="812" type="line"/>
      <point x="23" y="812" type="line"/>
      <point x="-97" y="1058" type="line"/>
      <point x="-174" y="1058" type="line"/>
    </contour>
  </outline>
</glyph>
<glyph name="u16F83.blw" format="2">
  <outline>
    <contour>
      <point x="-42" y="-340" type="line"/>
      <point x="43" y="-340" type="line"/>
      <point x="174" y="-82" type="line"/>
      <point x="97" y="-82" type="line"/>
      <point x="-20" y="-328" type="line"/>
      <point x="23" y="-328" type="line"/>
      <point x="-97" y="-82" type="line"/>
      <point x="-174" y="-82" type="line"/>
    </contour>
  </outline>
</glyph>
<glyph name="u16F83.rht" format="2">
  <advance width="398"/>
  <outline>
    <contour>
      <point x="132" y="456" type="line"/>
      <point x="217" y="456" type="line"/>
      <point x="348" y="714" type="line"/>
      <point x="271" y="714" type="line"/>
      <point x="154" y="468" type="line"/>
      <point x="197" y="468" type="line"/>
      <point x="77" y="714" type="line"/>
      <point x="0" y="714" type="line"/>
    </contour>
  </outline>
</glyph>
<glyph name="u16F84.abv" format="2">
  <outline>
    <contour>
      <point x="-42" y="1058" type="line"/>
      <point x="-174" y="800" type="line"/>
      <point x="-97" y="800" type="line"/>
      <point x="23" y="1046" type="line"/>
      <point x="-20" y="1046" type="line"/>
      <point x="97" y="800" type="line"/>
      <point x="174" y="800" type="line"/>
      <point x="43" y="1058" type="line"/>
    </contour>
  </outline>
</glyph>
<glyph name="u16F84.blw" format="2">
  <outline>
    <contour>
      <point x="-42" y="-82" type="line"/>
      <point x="-174" y="-340" type="line"/>
      <point x="-97" y="-340" type="line"/>
      <point x="23" y="-94" type="line"/>
      <point x="-20" y="-94" type="line"/>
      <point x="97" y="-340" type="line"/>
      <point x="174" y="-340" type="line"/>
      <point x="43" y="-82" type="line"/>
    </contour>
  </outline>
</glyph>
<glyph name="u16F84.rht" format="2">
  <advance width="398"/>
  <outline>
    <contour>
      <point x="132" y="714" type="line"/>
      <point x="0" y="456" type="line"/>
      <point x="77" y="456" type="line"/>
      <point x="197" y="702" type="line"/>
      <point x="154" y="702" type="line"/>
      <point x="271" y="456" type="line"/>
      <point x="348" y="456" type="line"/>
      <point x="217" y="714" type="line"/>
    </contour>
  </outline>
</glyph>
<glyph name="u16F85.abv" format="2">
  <outline>
    <contour>
      <point x="-141" y="1141" type="line"/>
      <point x="-141" y="969" type="line"/>
      <point x="-1" y="969" type="line" smooth="yes"/>
      <point x="49" y="969"/>
      <point x="73" y="954"/>
      <point x="73" y="915" type="curve" smooth="yes"/>
      <point x="73" y="872"/>
      <point x="49" y="860"/>
      <point x="1" y="860" type="curve" smooth="yes"/>
      <point x="-141" y="860" type="line"/>
      <point x="-141" y="800" type="line"/>
      <point x="-11" y="800" type="line" smooth="yes"/>
      <point x="104" y="800"/>
      <point x="141" y="847"/>
      <point x="141" y="915" type="curve" smooth="yes"/>
      <point x="141" y="987"/>
      <point x="103" y="1029"/>
      <point x="-11" y="1029" type="curve" smooth="yes"/>
      <point x="-77" y="1029" type="line"/>
      <point x="-77" y="1141" type="line"/>
    </contour>
    <contour>
      <point x="-141" y="830" type="line"/>
      <point x="-77" y="830" type="line"/>
      <point x="-77" y="1028" type="line"/>
      <point x="-141" y="1028" type="line"/>
    </contour>
  </outline>
</glyph>
<glyph name="u16F85.blw" format="2">
  <outline>
    <contour>
      <point x="-141" y="0" type="line"/>
      <point x="-141" y="-172" type="line"/>
      <point x="-1" y="-172" type="line" smooth="yes"/>
      <point x="49" y="-172"/>
      <point x="73" y="-187"/>
      <point x="73" y="-226" type="curve" smooth="yes"/>
      <point x="73" y="-269"/>
      <point x="49" y="-281"/>
      <point x="1" y="-281" type="curve" smooth="yes"/>
      <point x="-141" y="-281" type="line"/>
      <point x="-141" y="-341" type="line"/>
      <point x="-11" y="-341" type="line" smooth="yes"/>
      <point x="104" y="-341"/>
      <point x="141" y="-294"/>
      <point x="141" y="-226" type="curve" smooth="yes"/>
      <point x="141" y="-154"/>
      <point x="103" y="-112"/>
      <point x="-11" y="-112" type="curve" smooth="yes"/>
      <point x="-77" y="-112" type="line"/>
      <point x="-77" y="0" type="line"/>
    </contour>
    <contour>
      <point x="-141" y="-311" type="line"/>
      <point x="-77" y="-311" type="line"/>
      <point x="-77" y="-113" type="line"/>
      <point x="-141" y="-113" type="line"/>
    </contour>
  </outline>
</glyph>
<glyph name="u16F85.cnt" format="2">
  <advance width="331"/>
  <outline>
    <contour>
      <point x="0" y="541" type="line"/>
      <point x="0" y="369" type="line"/>
      <point x="140" y="369" type="line" smooth="yes"/>
      <point x="189" y="369"/>
      <point x="213" y="354"/>
      <point x="213" y="315" type="curve" smooth="yes"/>
      <point x="213" y="272"/>
      <point x="189" y="260"/>
      <point x="141" y="260" type="curve" smooth="yes"/>
      <point x="0" y="260" type="line"/>
      <point x="0" y="200" type="line"/>
      <point x="130" y="200" type="line" smooth="yes"/>
      <point x="244" y="200"/>
      <point x="281" y="247"/>
      <point x="281" y="315" type="curve" smooth="yes"/>
      <point x="281" y="387"/>
      <point x="243" y="429"/>
      <point x="130" y="429" type="curve" smooth="yes"/>
      <point x="64" y="429" type="line"/>
      <point x="64" y="541" type="line"/>
    </contour>
    <contour>
      <point x="0" y="230" type="line"/>
      <point x="64" y="230" type="line"/>
      <point x="64" y="428" type="line"/>
      <point x="0" y="428" type="line"/>
    </contour>
  </outline>
</glyph>
<glyph name="u16F85.rht" format="2">
  <advance width="331"/>
  <outline>
    <contour>
      <point x="0" y="797" type="line"/>
      <point x="0" y="625" type="line"/>
      <point x="140" y="625" type="line" smooth="yes"/>
      <point x="189" y="625"/>
      <point x="213" y="610"/>
      <point x="213" y="571" type="curve" smooth="yes"/>
      <point x="213" y="528"/>
      <point x="189" y="516"/>
      <point x="141" y="516" type="curve" smooth="yes"/>
      <point x="0" y="516" type="line"/>
      <point x="0" y="456" type="line"/>
      <point x="130" y="456" type="line" smooth="yes"/>
      <point x="244" y="456"/>
      <point x="281" y="503"/>
      <point x="281" y="571" type="curve" smooth="yes"/>
      <point x="281" y="643"/>
      <point x="243" y="685"/>
      <point x="130" y="685" type="curve" smooth="yes"/>
      <point x="64" y="685" type="line"/>
      <point x="64" y="797" type="line"/>
    </contour>
    <contour>
      <point x="0" y="486" type="line"/>
      <point x="64" y="486" type="line"/>
      <point x="64" y="684" type="line"/>
      <point x="0" y="684" type="line"/>
    </contour>
  </outline>
</glyph>
<glyph name="u16F86.blw" format="2">
  <outline>
    <contour>
      <point x="78" y="-413" type="line"/>
      <point x="142" y="-413" type="line"/>
      <point x="142" y="-72" type="line"/>
      <point x="78" y="-72" type="line"/>
    </contour>
    <contour>
      <point x="-34" y="-127" type="curve"/>
      <point x="-77" y="-85" type="line"/>
      <point x="-120" y="-122"/>
      <point x="-142" y="-161"/>
      <point x="-142" y="-199" type="curve" smooth="yes"/>
      <point x="-142" y="-271"/>
      <point x="-109" y="-327"/>
      <point x="1" y="-327" type="curve" smooth="yes"/>
      <point x="128" y="-327" type="line"/>
      <point x="128" y="-263" type="line"/>
      <point x="-4" y="-263" type="line" smooth="yes"/>
      <point x="-53" y="-263"/>
      <point x="-77" y="-238"/>
      <point x="-77" y="-199" type="curve" smooth="yes"/>
      <point x="-77" y="-172"/>
      <point x="-62" y="-147"/>
    </contour>
  </outline>
</glyph>
<glyph name="u16F86.cnt" format="2">
  <advance width="333"/>
  <outline>
    <contour>
      <point x="219" y="200" type="line"/>
      <point x="283" y="200" type="line"/>
      <point x="283" y="541" type="line"/>
      <point x="219" y="541" type="line"/>
    </contour>
    <contour>
      <point x="108" y="486" type="curve"/>
      <point x="65" y="528" type="line"/>
      <point x="22" y="491"/>
      <point x="0" y="452"/>
      <point x="0" y="414" type="curve" smooth="yes"/>
      <point x="0" y="342"/>
      <point x="33" y="286"/>
      <point x="142" y="286" type="curve" smooth="yes"/>
      <point x="269" y="286" type="line"/>
      <point x="269" y="350" type="line"/>
      <point x="138" y="350" type="line" smooth="yes"/>
      <point x="89" y="350"/>
      <point x="65" y="375"/>
      <point x="65" y="414" type="curve" smooth="yes"/>
      <point x="65" y="441"/>
      <point x="80" y="466"/>
    </contour>
  </outline>
</glyph>
<glyph name="u16F86.rht" format="2">
  <advance width="333"/>
  <outline>
    <contour>
      <point x="219" y="456" type="line"/>
      <point x="283" y="456" type="line"/>
      <point x="283" y="797" type="line"/>
      <point x="219" y="797" type="line"/>
    </contour>
    <contour>
      <point x="108" y="742" type="curve"/>
      <point x="65" y="784" type="line"/>
      <point x="22" y="747"/>
      <point x="0" y="708"/>
      <point x="0" y="670" type="curve" smooth="yes"/>
      <point x="0" y="598"/>
      <point x="33" y="542"/>
      <point x="142" y="542" type="curve" smooth="yes"/>
      <point x="269" y="542" type="line"/>
      <point x="269" y="606" type="line"/>
      <point x="138" y="606" type="line" smooth="yes"/>
      <point x="89" y="606"/>
      <point x="65" y="631"/>
      <point x="65" y="670" type="curve" smooth="yes"/>
      <point x="65" y="697"/>
      <point x="80" y="722"/>
    </contour>
  </outline>
</glyph>
